<?xml version="1.0" encoding="UTF-8"?>
<svg id="Layer_2" data-name="Layer 2" xmlns="http://www.w3.org/2000/svg" width="95.62" height="95.62" xmlns:xlink="http://www.w3.org/1999/xlink" viewBox="0 0 95.62 95.62">
  <defs>
    <style>
      .cls-1 {
        fill: #d5b663;
      }

      .cls-1, .cls-2, .cls-3 {
        stroke-width: 0px;
      }

      .cls-2 {
        fill: none;
      }

      .cls-4 {
        clip-path: url(#clippath);
      }

      .cls-3 {
        fill: #fff;
      }
    </style>
    <clipPath id="clippath">
      <rect class="cls-2" x="0" y="0" width="95.62" height="95.62" rx="47.81" ry="47.81"/>
    </clipPath>
  </defs>
  <g id="Layer_1-2" data-name="Layer 1">
    <g>
      <rect class="cls-1" x="0" y="0" width="95.62" height="95.62" rx="47.81" ry="47.81"/>
      <g class="cls-4">
        <path class="cls-3" d="M30.49,72.19c-.43.01-.85,0-1.27-.03-1.36-.11-2.63-.85-3.47-2.1-.5-.74-.82-1.65-.98-2.66-.31-1.98.09-4.37,1.53-6.87,1.47-2.56,3.55-4.53,5.7-5.76,2.6-1.48,5.29-1.89,6.94-.5,1.08.78,1.28,2.47,1.11,4.32-.24,2.72-1.34,5.79-2.67,7.63-.39.54-.79,1.07-1.25,1.56-1.57,1.7-3.48,3.16-5.64,4.4M90.77,48.38c-.87-.16-1.72-.37-2.57-.59-1.99-.5-3.94-1.12-5.84-1.89-2.71-1.09-5.28-2.5-7.8-4.03-3.19-1.93-6.27-4.1-9.16-6.48h0c-1.38-1.23-2.84-2.54-4.24-3.91l-.03-.03c-.75-.8-1.46-1.63-2.16-2.46-1.6-1.89-3.19-3.79-4.71-5.76-.65-.85-1.24-1.73-1.9-2.59-.43-.57-.86-1.23-1.4-1.84-.54-.61-1.17-1.15-1.83-1.57-.99-.64-2.08-.98-3.28-.76-1.21.22-2.07.88-2.67,1.78-.83,1.23-1.15,2.91-1.23,4.37-.09,1.67.04,3.31.29,4.92.47,2.98,1.41,5.88,2.08,8.84.17.73.31,1.47.43,2.21.51,3.32.72,6.69.59,10.03-.13,3.32-.61,6.62-1.47,9.86-.3,1.14-.69,2.17-1.05,3.16-1.03,2.78-2.25,4.98-3.78,6.61-2.17,2.3-4.77,3.49-7.29,3.84,1.8-1.14,3.42-2.42,4.84-3.83.49-.49.99-.98,1.44-1.5,1.61-1.84,3.1-5.04,3.63-7.94.3-1.63.25-3.18-.16-4.38-.26-.75-.68-1.36-1.23-1.84-1.92-1.46-4.74-1.51-7.58-.19-2.85,1.32-5.72,3.97-7.51,7.55-1.4,2.82-1.67,5.46-1.2,7.6.24,1.1.69,2.06,1.24,2.87.95,1.39,2.27,2.33,3.8,2.56-2.64,1.33-5.6,2.39-8.75,3.2-3.38.87-7.02,1.49-10.79,1.69-.4.02-.81.02-1.21.03-2.69.04-5.43-.15-8.2-.4v1.72c2.79.03,5.55-.16,8.25-.43.41-.04.82-.09,1.23-.13,3.81-.36,7.49-.89,10.91-1.78,3.55-.93,6.79-2.2,9.65-3.8,3.28.16,6.89-.95,9.95-3.84,1.77-1.68,3.44-3.91,4.56-6.94.39-1.05.67-2.2.92-3.43.69-3.38.98-6.81.93-10.24-.06-3.3-.43-6.59-1.09-9.83-.57-3.56-1.18-7.18-.88-10.78.1-1.18.3-2.47,1-3.46.31-.44.78-.79,1.32-.95,2.04-.62,5.4,2.48,7.25,3.88,3.76,2.84,9.67,7.61,11.91,9.42h0s.08.06.08.06c2.36,2.12,4.85,4.1,7.5,5.82,1.58,1.02,3.24,1.92,4.92,2.73,2.82,1.38,5.76,2.51,8.81,3.23,1.22.29,2.45.49,3.7.66,1.5.21,3.02.35,4.56.39v-.94c-1.62-.04-3.22-.19-4.78-.47"/>
      </g>
    </g>
  </g>
</svg>