<?xml version="1.0" encoding="UTF-8"?>
<svg id="Layer_2" data-name="Layer 2" xmlns="http://www.w3.org/2000/svg" width="100.67" height="100.67" viewBox="0 0 100.67 100.67">
  <defs>
    <style>
      .cls-1 {
        fill: #eacec5;
      }

      .cls-1, .cls-2, .cls-3, .cls-4, .cls-5, .cls-6, .cls-7, .cls-8, .cls-9, .cls-10, .cls-11, .cls-12 {
        stroke-width: 0px;
      }

      .cls-2 {
        fill: #eaeaea;
      }

      .cls-3 {
        fill: #000;
        opacity: .05;
      }

      .cls-4 {
        fill: coral;
      }

      .cls-5 {
        fill: #ffdfd3;
      }

      .cls-6 {
        fill: #f4f4f4;
      }

      .cls-7 {
        fill: #f49578;
      }

      .cls-8 {
        fill: #fafbff;
      }

      .cls-9 {
        fill: #e8704b;
      }

      .cls-13 {
        fill: none;
        stroke: coral;
        stroke-miterlimit: 10;
        stroke-width: 5px;
      }

      .cls-10 {
        fill: #fff;
      }

      .cls-11 {
        fill: #f0f0f2;
      }

      .cls-12 {
        fill: #ff9f7c;
      }
    </style>
  </defs>
  <g id="Layer_1-2" data-name="Layer 1">
    <g>
      <g>
        <rect class="cls-3" x="7.41" y="7.41" width="85.85" height="85.85" rx="42.92" ry="42.92"/>
        <rect class="cls-10" x="9.98" y="9.98" width="80.71" height="80.71" rx="40.35" ry="40.35"/>
        <rect class="cls-13" x="2.5" y="2.5" width="95.67" height="95.67" rx="47.83" ry="47.83"/>
      </g>
      <g>
        <path class="cls-5" d="M60.21,46.24l-4.74-.57c-1.64-.13-3.37-.19-5.16-.19s-3.5.07-5.12.19l-4.73.57c-4.99.84-8.3,2.31-8.3,3.98,0,2.62,8.13,5.04,18.15,5.04s18.15-2.42,18.15-5.04c0-1.66-3.28-3.13-8.25-3.97h0Z"/>
        <g>
          <path class="cls-1" d="M38.69,50.19c0-1.76,1.88-3.33,4.78-4.32l-3.01.36c-4.99.84-8.3,2.31-8.3,3.98,0,2.04,4.93,3.96,11.85,4.71-3.21-1.07-5.33-2.86-5.33-4.73h0Z"/>
          <path class="cls-6" d="M59.08,43.34c-.36.5-.93.81-1.54.86-.71.06-1.39.42-1.84,1.06-.71,1.02-.55,2.43.36,3.26,1.07.98,2.73.84,3.63-.27.45-.57.62-1.27.52-1.93-.09-.6.11-1.2.52-1.65l14.19-15.75c.87-.96.75-2.45-.26-3.26-1.01-.81-2.49-.61-3.24.44l-12.35,17.24Z"/>
          <path class="cls-6" d="M41.58,43.34c.36.5.93.81,1.54.86.71.06,1.39.42,1.84,1.06.71,1.02.55,2.43-.36,3.26-1.07.98-2.73.84-3.63-.27-.45-.57-.62-1.27-.52-1.93.09-.6-.11-1.2-.52-1.65l-14.19-15.75c-.87-.96-.75-2.45.26-3.26,1.01-.81,2.49-.61,3.24.44l12.35,17.24Z"/>
          <path class="cls-2" d="M57.55,46.07c.45-.64,1.13-1,1.84-1.06.62-.05,1.18-.36,1.54-.86l12.35-17.24c.41-.58,1.05-.9,1.71-.94-.09-.11-.2-.22-.32-.31-1.01-.81-2.49-.61-3.24.44l-12.35,17.24c-.36.5-.93.81-1.54.86-.71.06-1.39.42-1.84,1.06-.71,1.02-.55,2.43.36,3.26.49.45,1.1.66,1.7.66-.78-.85-.88-2.16-.22-3.11h0Z"/>
          <path class="cls-2" d="M42.49,47.55c-.45-.56-.62-1.27-.52-1.93.09-.6-.11-1.2-.52-1.65l-14.19-15.75c-.79-.88-.76-2.21.03-3.05-.45.02-.91.19-1.29.49-1.01.81-1.13,2.3-.26,3.26l14.19,15.75c.4.45.61,1.05.52,1.65-.1.67.07,1.37.52,1.93.9,1.12,2.56,1.26,3.63.27.02-.02.04-.04.06-.06-.81.07-1.63-.24-2.18-.92h0Z"/>
        </g>
        <path class="cls-12" d="M50.31,41.76c-.5,0-.91-.41-.91-.91v-2.96c0-.5.41-.91.91-.91s.91.41.91.91v2.96c0,.5-.41.91-.91.91h0Z"/>
        <path class="cls-12" d="M45.42,43.07c-.31,0-.62-.16-.79-.45l-1.48-2.56c-.25-.43-.1-.99.33-1.24.43-.25.99-.1,1.24.33l1.48,2.56c.25.43.1.99-.33,1.24-.14.08-.3.12-.45.12h0Z"/>
        <path class="cls-12" d="M55.2,43.07c-.15,0-.31-.04-.45-.12-.43-.25-.58-.81-.33-1.24l1.48-2.56c.25-.43.81-.58,1.24-.33.43.25.58.81.33,1.24l-1.48,2.56c-.17.29-.47.45-.79.45h0Z"/>
        <path class="cls-4" d="M50.31,58.2c9.38,0,17.18-1.86,18.15-4.24v-3.76c0,2.62-8.13,4.74-18.15,4.74s-18.15-2.12-18.15-4.74v3.26c0,2.62,8.13,4.74,18.15,4.74h0Z"/>
        <path class="cls-9" d="M38.09,53.71c-3.64-.87-5.93-2.11-5.93-3.5v3.26c0,1.39,2.28,2.63,5.93,3.5v-3.26Z"/>
        <path class="cls-4" d="M50.31,72.44c-10.02,0-18.15-2.12-18.15-4.74v3.06c0,2.62,8.13,4.74,18.15,4.74s18.15-2.12,18.15-4.74v-2.56c-.97,2.38-8.77,4.24-18.15,4.24h0Z"/>
        <path class="cls-9" d="M38.09,71.21c-3.64-.87-5.93-2.11-5.93-3.5v3.06c0,1.39,2.28,2.63,5.93,3.5v-3.06Z"/>
        <path class="cls-12" d="M50.31,58c-10.02,0-18.15-2.12-18.15-4.74v14.64c0,2.62,8.13,4.74,18.15,4.74s18.15-2.12,18.15-4.74v-14.64c0,2.62-8.13,4.74-18.15,4.74h0Z"/>
        <path class="cls-7" d="M38.09,56.77c-3.64-.87-5.93-2.11-5.93-3.5v14.64c0,1.39,2.28,2.63,5.93,3.5v-14.64Z"/>
        <path class="cls-11" d="M50.31,73.4c-.31,0-.61-.2-.72-.51l-5.23-14.84c-.14-.4.07-.83.46-.97.4-.14.83.07.97.46l5.23,14.84c.14.4-.07.83-.46.97-.08.03-.17.04-.25.04h0Z"/>
        <path class="cls-11" d="M38.69,72.31c-.32,0-.61-.2-.72-.52l-5.65-16.82c-.13-.4.08-.83.48-.96.4-.13.83.08.96.48l5.65,16.82c.13.4-.08.83-.48.96-.08.03-.16.04-.24.04h0Z"/>
        <path class="cls-11" d="M61.93,72.31c-.29,0-.56-.16-.69-.44l-6.39-13.75c-.18-.38-.01-.83.37-1.01.38-.18.83-.01,1.01.37l6.39,13.74c.18.38.01.83-.37,1.01-.1.05-.21.07-.32.07h0Z"/>
        <path class="cls-8" d="M38.69,72.31c-.11,0-.22-.02-.32-.07-.38-.18-.55-.63-.37-1.01l6.39-13.74c.18-.38.63-.55,1.01-.37.38.18.55.63.37,1.01l-6.39,13.74c-.13.28-.4.44-.69.44h0Z"/>
        <path class="cls-8" d="M50.31,73.4c-.08,0-.17-.01-.25-.04-.4-.14-.6-.57-.46-.97l5.23-14.84c.14-.4.57-.6.97-.46.4.14.6.57.46.97l-5.23,14.84c-.11.31-.4.51-.72.51h0Z"/>
        <path class="cls-8" d="M61.93,72.31c-.08,0-.16-.01-.24-.04-.4-.13-.61-.56-.48-.96l5.65-16.82c.13-.4.56-.61.96-.48.4.13.61.56.48.96l-5.65,16.82c-.11.32-.4.52-.72.52h0Z"/>
      </g>
    </g>
  </g>
</svg>