<?xml version="1.0" encoding="UTF-8"?>
<svg id="Layer_2" data-name="Layer 2" xmlns="http://www.w3.org/2000/svg" width="100.67" height="100.67" xmlns:xlink="http://www.w3.org/1999/xlink" viewBox="0 0 100.67 100.67">
  <defs>
    <style>
      .cls-1 {
        fill: #000;
        opacity: .05;
      }

      .cls-1, .cls-2, .cls-3, .cls-4, .cls-5, .cls-6, .cls-7, .cls-8, .cls-9, .cls-10, .cls-11 {
        stroke-width: 0px;
      }

      .cls-12 {
        clip-path: url(#clippath-2);
      }

      .cls-2 {
        fill: #ededef;
      }

      .cls-3, .cls-13 {
        fill: none;
      }

      .cls-14 {
        clip-path: url(#clippath-1);
      }

      .cls-4 {
        fill: #ebe4e2;
      }

      .cls-5 {
        fill: #2b454c;
      }

      .cls-6 {
        fill: #fafbff;
      }

      .cls-7 {
        fill: #1d2f33;
      }

      .cls-15 {
        clip-path: url(#clippath);
      }

      .cls-8 {
        fill: #d1c4c4;
      }

      .cls-16 {
        clip-path: url(#clippath-3);
      }

      .cls-13 {
        stroke: #7ec8e3;
        stroke-miterlimit: 10;
        stroke-width: 5px;
      }

      .cls-9 {
        fill: #6fb1c1;
      }

      .cls-10 {
        fill: #7ec8e3;
      }

      .cls-11 {
        fill: #6eb2c4;
      }
    </style>
    <clipPath id="clippath">
      <rect class="cls-3" x="25.63" y="25.57" width="49.41" height="49.52"/>
    </clipPath>
    <clipPath id="clippath-1">
      <rect class="cls-3" x="25.63" y="25.57" width="49.41" height="49.52"/>
    </clipPath>
    <clipPath id="clippath-2">
      <rect class="cls-3" x="25.63" y="25.57" width="49.41" height="49.52"/>
    </clipPath>
    <clipPath id="clippath-3">
      <rect class="cls-3" x="25.63" y="25.57" width="49.41" height="49.52"/>
    </clipPath>
  </defs>
  <g id="Layer_1-2" data-name="Layer 1">
    <g>
      <g>
        <rect class="cls-1" x="7.41" y="7.41" width="85.85" height="85.85" rx="42.92" ry="42.92"/>
        <rect class="cls-9" x="9.98" y="9.98" width="80.71" height="80.71" rx="40.35" ry="40.35"/>
        <rect class="cls-13" x="2.5" y="2.5" width="95.67" height="95.67" rx="47.83" ry="47.83"/>
      </g>
      <g>
        <path class="cls-5" d="M63.37,29.79c-.28-.28-.74-.28-1.02,0-.28.28-.28.74,0,1.02l7.45,7.45c.14.14.33.21.51.21s.37-.07.51-.21c.28-.28.28-.74,0-1.02l-7.45-7.45Z"/>
        <g class="cls-15">
          <path class="cls-5" d="M73.1,34.74l-7.24-7.24c-.28-.28-.74-.28-1.02,0-.28.28-.28.74,0,1.02l7.24,7.24c.14.14.33.21.51.21s.37-.07.51-.21c.28-.28.28-.74,0-1.02h0Z"/>
          <path class="cls-5" d="M74.28,32.94c-.19,0-.37-.07-.51-.21l-5.89-5.89c-.28-.28-.28-.74,0-1.02.28-.28.74-.28,1.02,0l5.89,5.89c.28.28.28.74,0,1.02-.14.14-.33.21-.51.21h0Z"/>
          <path class="cls-10" d="M48.43,71.87c-4.69,4.69-12.98,4-18.42-1.56-5.39-5.52-5.88-13.81-1.09-18.35,1.52-1.44,3.4-2.34,5.42-2.71,3.52-.65,6.39-2.79,8.02-5.85.41-.77.97-1.46,1.61-2.1,7.02-7.02,22.52,8.12,15.12,15.52-.55.55-1.17,1.01-1.83,1.37-3.07,1.68-5.28,4.51-5.93,8.07-.39,2.11-1.36,4.06-2.91,5.62h0Z"/>
          <path class="cls-11" d="M55.73,42.54c3.09,3.74,4.4,8.64,1.07,11.97-.55.55-1.17,1.01-1.83,1.37-3.07,1.68-5.28,4.51-5.93,8.07-.39,2.11-1.35,4.07-2.91,5.62-4.32,4.32-11.68,4.08-17.07-.33.3.37.62.72.96,1.07,5.44,5.57,13.72,6.26,18.42,1.56,1.56-1.56,2.52-3.51,2.91-5.62.66-3.56,2.87-6.39,5.93-8.07.66-.36,1.28-.82,1.83-1.37,4.07-4.07,1.2-10.49-3.37-14.27h0Z"/>
        </g>
        <path class="cls-4" d="M38.17,66.44l-4.01-4.01c-.38-.38-.38-.99,0-1.37.38-.38.99-.38,1.37,0l4.01,4.01c.38.38.38.99,0,1.37-.38.38-.99.38-1.37,0h0Z"/>
        <path class="cls-4" d="M45.56,50.82l20.3-20.3,4.21,4.21-20.3,20.3-4.21-4.21Z"/>
        <path class="cls-8" d="M47.67,52.93l20.3-20.3,2.11,2.11-20.3,20.3-2.11-2.11Z"/>
        <path class="cls-5" d="M48.56,52.04c-1.94-1.94-5.08-1.94-7.02,0s-1.94,5.08,0,7.02c1.94,1.94,5.08,1.94,7.02,0,1.94-1.94,1.94-5.08,0-7.02h0Z"/>
        <g class="cls-14">
          <path class="cls-7" d="M48.56,52.04c-1.35-1.35-3.29-1.76-5-1.23.74.23,1.44.64,2.02,1.23,1.94,1.94,1.94,5.08,0,7.02-.59.59-1.28.99-2.02,1.23,1.71.54,3.65.13,5-1.23,1.94-1.94,1.94-5.08,0-7.02h0Z"/>
          <path class="cls-10" d="M67.04,38.02l-4.45-4.45c-.2-.2-.19-.53.02-.71l8.09-7.12c.19-.17.49-.16.67.02l3.48,3.48c.18.18.19.48.02.67l-7.12,8.09c-.19.21-.51.22-.71.02h0Z"/>
          <path class="cls-11" d="M74.86,29.24l-2.12-2.12c.18.18.19.48.02.67l-7.12,8.09c-.19.21-.51.22-.71.02l2.12,2.12c.2.2.53.19.71-.02l7.12-8.09c.17-.19.16-.49-.02-.67h0Z"/>
        </g>
        <path class="cls-5" d="M62.84,39.34l-1.59-1.59c-.28-.28-.74-.28-1.02,0-.28.28-.28.74,0,1.02l1.59,1.59c.14.14.33.21.51.21s.37-.07.51-.21c.28-.28.28-.74,0-1.02h0Z"/>
        <path class="cls-5" d="M59.05,39.95c-.28-.28-.74-.28-1.02,0-.28.28-.28.74,0,1.02l1.59,1.59c.14.14.33.21.51.21s.37-.07.51-.21c.28-.28.28-.74,0-1.02l-1.59-1.59Z"/>
        <path class="cls-5" d="M56.85,42.15c-.28-.28-.74-.28-1.02,0-.28.28-.28.74,0,1.02l1.59,1.59c.14.14.33.21.51.21s.37-.07.51-.21c.28-.28.28-.74,0-1.02l-1.59-1.59Z"/>
        <path class="cls-5" d="M54.65,44.35c-.28-.28-.74-.28-1.02,0-.28.28-.28.74,0,1.02l1.59,1.59c.14.14.33.21.51.21s.37-.07.51-.21c.28-.28.28-.74,0-1.02l-1.59-1.59Z"/>
        <path class="cls-5" d="M52.45,46.56c-.28-.28-.74-.28-1.02,0-.28.28-.28.74,0,1.02l1.59,1.59c.14.14.33.21.51.21s.37-.07.51-.21c.28-.28.28-.74,0-1.02l-1.59-1.59Z"/>
        <path class="cls-5" d="M66.35,32.48c-.28-.28-.74-.28-1.02,0-.28.28-.28.74,0,1.02.28.28.74.28,1.02,0,.28-.28.28-.74,0-1.02h0Z"/>
        <path class="cls-5" d="M68.14,34.26c-.28-.28-.74-.28-1.02,0-.28.28-.28.74,0,1.02.28.28.74.28,1.02,0,.28-.28.28-.74,0-1.02h0Z"/>
        <path class="cls-5" d="M68.59,30.25c-.28-.28-.74-.28-1.02,0-.28.28-.28.74,0,1.02.28.28.74.28,1.02,0,.28-.28.28-.74,0-1.02h0Z"/>
        <path class="cls-5" d="M70.38,32.02c-.28-.28-.74-.28-1.02,0-.28.28-.28.74,0,1.02.28.28.74.28,1.02,0,.28-.28.28-.74,0-1.02h0Z"/>
        <path class="cls-5" d="M70.83,28.01c-.28-.28-.74-.28-1.02,0-.28.28-.28.74,0,1.02.28.28.74.28,1.02,0,.28-.28.28-.74,0-1.02h0Z"/>
        <path class="cls-5" d="M72.61,29.78c-.28-.28-.74-.28-1.02,0-.28.28-.28.74,0,1.02.28.28.74.28,1.02,0,.28-.28.28-.74,0-1.02h0Z"/>
        <path class="cls-2" d="M28.41,28.74c-.09-.39-.47-.64-.86-.55-.39.09-.64.47-.55.86l2.33,10.69c.07.34.37.57.71.57.05,0,.1,0,.15-.02.39-.09.64-.47.55-.86l-2.33-10.69Z"/>
        <g class="cls-12">
          <path class="cls-2" d="M40.09,37.39l-2.33-10.69c-.09-.39-.47-.64-.86-.55-.39.09-.64.47-.55.86l2.33,10.69c.07.34.37.57.71.57.05,0,.1,0,.15-.02.39-.09.64-.47.55-.86h0Z"/>
          <path class="cls-6" d="M30.74,39.42c.3,1.4-.67,2.38-2.06,2.68-1.4.3-2.69-.18-2.99-1.58-.3-1.39.7-2.31,2.1-2.61,1.4-.3,2.65.11,2.95,1.51h0Z"/>
          <path class="cls-6" d="M40.09,37.38c.3,1.4-.67,2.38-2.06,2.68-1.4.3-2.69-.18-2.99-1.58-.3-1.4.7-2.31,2.1-2.61,1.39-.3,2.65.11,2.95,1.51h0Z"/>
          <path class="cls-6" d="M38.17,28.59l-10.77,2.35-.54-2.46c-.08-.36.15-.71.51-.79l9.47-2.07c.36-.08.71.15.79.51l.54,2.46Z"/>
        </g>
        <path class="cls-2" d="M65.36,59.05c-.37-.14-.79.04-.94.41l-3.96,10.2c-.14.37.04.79.41.94.09.03.17.05.26.05.29,0,.56-.18.67-.46l3.96-10.2c.14-.37-.04-.79-.41-.94h0Z"/>
        <g class="cls-16">
          <path class="cls-2" d="M74.28,62.51c-.37-.14-.79.04-.94.41l-3.96,10.2c-.14.37.04.79.41.94.09.03.17.05.26.05.29,0,.56-.18.67-.46l3.96-10.2c.14-.37-.04-.79-.41-.94h0Z"/>
          <path class="cls-6" d="M74.04,65.13l-10.27-3.99.91-2.35c.13-.34.52-.51.86-.38l9.03,3.51c.34.13.51.52.38.86l-.91,2.35Z"/>
          <path class="cls-6" d="M61.8,70.17c-.52,1.33-1.87,1.61-3.19,1.09-1.33-.52-2.13-1.63-1.62-2.96.52-1.33,1.86-1.53,3.19-1.01,1.33.52,2.14,1.56,1.63,2.88h0Z"/>
          <path class="cls-6" d="M70.73,73.64c-.52,1.33-1.87,1.61-3.2,1.09-1.33-.52-2.14-1.64-1.62-2.97.52-1.33,1.86-1.53,3.19-1.02,1.33.52,2.15,1.56,1.63,2.89h0Z"/>
        </g>
      </g>
    </g>
  </g>
</svg>