<?xml version="1.0" encoding="UTF-8"?>
<svg id="Layer_2" data-name="Layer 2" xmlns="http://www.w3.org/2000/svg" width="295" height="1080" xmlns:xlink="http://www.w3.org/1999/xlink" viewBox="0 0 295 1080">
  <defs>
    <style>
      .cls-1 {
        fill: #f7f1e1;
      }

      .cls-1, .cls-2, .cls-3, .cls-4, .cls-5 {
        stroke-width: 0px;
      }

      .cls-2 {
        fill: #ede1c0;
      }

      .cls-2, .cls-3 {
        fill-rule: evenodd;
      }

      .cls-3 {
        fill: url(#New_Pattern_4);
      }

      .cls-4 {
        fill: none;
      }

      .cls-5 {
        fill: #d9bf83;
      }
    </style>
    <pattern id="New_Pattern_4" data-name="New Pattern 4" x="0" y="0" width="544.08" height="544.08" patternTransform="translate(-1803.44 -8273.19) scale(.03)" patternUnits="userSpaceOnUse" viewBox="0 0 544.08 544.08">
      <g>
        <rect class="cls-4" width="544.08" height="544.08"/>
        <g>
          <circle class="cls-5" cx="406.58" cy="406.58" r="25"/>
          <circle class="cls-5" cx="406.58" cy="137.5" r="25"/>
        </g>
        <g>
          <circle class="cls-5" cx="137.5" cy="406.58" r="25"/>
          <circle class="cls-5" cx="137.5" cy="137.5" r="25"/>
        </g>
      </g>
    </pattern>
  </defs>
  <g id="Layer_1-2" data-name="Layer 1">
    <rect class="cls-1" width="295" height="1080"/>
    <g>
      <path id="SVGID" class="cls-2" d="M276.56,572.61v-23.16c0-5.07,4.15-9.22,9.22-9.22s9.22,4.15,9.22,9.22v530.55H0v-487.81c0,5.07,4.15,9.22,9.22,9.22s9.11-4.04,9.22-9.01c0-.07,0-.14,0-.21v-27.43c.11-4.98,4.22-9.01,9.22-9.01s9.22,4.15,9.22,9.22v52.41c0,5.07,4.15,9.22,9.22,9.22s9.22-4.15,9.22-9.22v-87.94c0-5.07,4.15-9.22,9.22-9.22s9.22,4.15,9.22,9.22v109.7c0,5.07,4.15,9.22,9.22,9.22s9.22-4.15,9.22-9.22v-45.84c0-5.07,4.15-9.22,9.22-9.22s9.22,4.15,9.22,9.22v16.12c0,5.07,4.15,9.22,9.22,9.22s9.22-4.15,9.22-9.22v-41.08c0-5.07,4.15-9.22,9.22-9.22s9.22,4.15,9.22,9.22v65.68c0,5.07,4.15,9.22,9.22,9.22s9.22-4.15,9.22-9.22v-92.66c0-5.07,4.15-9.22,9.22-9.22s9.22,4.15,9.22,9.22v53.98c0,5.07,4.15,9.22,9.22,9.22s9.22-4.15,9.22-9.22v-28.35c0-5.07,4.15-9.22,9.22-9.22s9.22,4.15,9.22,9.22v44.99c0,5.07,4.15,9.22,9.22,9.22s9.22-4.15,9.22-9.22v-85.01c0-5.07,4.15-9.22,9.22-9.22s9.22,4.15,9.22,9.22v45.64c0,5.07,4.15,9.22,9.22,9.22s9.22-4.15,9.22-9.22"/>
      <path id="SVGID-2" data-name="SVGID" class="cls-3" d="M276.56,572.61v-23.16c0-5.07,4.15-9.22,9.22-9.22s9.22,4.15,9.22,9.22v530.55H0v-487.81c0,5.07,4.15,9.22,9.22,9.22s9.11-4.04,9.22-9.01c0-.07,0-.14,0-.21v-27.43c.11-4.98,4.22-9.01,9.22-9.01s9.22,4.15,9.22,9.22v52.41c0,5.07,4.15,9.22,9.22,9.22s9.22-4.15,9.22-9.22v-87.94c0-5.07,4.15-9.22,9.22-9.22s9.22,4.15,9.22,9.22v109.7c0,5.07,4.15,9.22,9.22,9.22s9.22-4.15,9.22-9.22v-45.84c0-5.07,4.15-9.22,9.22-9.22s9.22,4.15,9.22,9.22v16.12c0,5.07,4.15,9.22,9.22,9.22s9.22-4.15,9.22-9.22v-41.08c0-5.07,4.15-9.22,9.22-9.22s9.22,4.15,9.22,9.22v65.68c0,5.07,4.15,9.22,9.22,9.22s9.22-4.15,9.22-9.22v-92.66c0-5.07,4.15-9.22,9.22-9.22s9.22,4.15,9.22,9.22v53.98c0,5.07,4.15,9.22,9.22,9.22s9.22-4.15,9.22-9.22v-28.35c0-5.07,4.15-9.22,9.22-9.22s9.22,4.15,9.22,9.22v44.99c0,5.07,4.15,9.22,9.22,9.22s9.22-4.15,9.22-9.22v-85.01c0-5.07,4.15-9.22,9.22-9.22s9.22,4.15,9.22,9.22v45.64c0,5.07,4.15,9.22,9.22,9.22s9.22-4.15,9.22-9.22"/>
    </g>
  </g>
</svg>