<?xml version="1.0" encoding="UTF-8"?>
<svg id="Layer_2" data-name="Layer 2" xmlns="http://www.w3.org/2000/svg" width="244.35" height="684.67" xmlns:xlink="http://www.w3.org/1999/xlink" viewBox="0 0 244.35 684.67">
  <defs>
    <style>
      .cls-1 {
        fill: #f7f1e1;
      }

      .cls-1, .cls-2, .cls-3, .cls-4, .cls-5 {
        stroke-width: 0px;
      }

      .cls-2 {
        fill: #d5b663;
      }

      .cls-6 {
        opacity: .2;
      }

      .cls-3 {
        fill: none;
      }

      .cls-7 {
        clip-path: url(#clippath);
      }

      .cls-4 {
        fill: #dec683;
      }

      .cls-5 {
        fill: #fff;
      }
    </style>
    <clipPath id="clippath">
      <rect class="cls-3" x="51.34" y="0" width="141.67" height="684.67" rx="70.83" ry="70.83"/>
    </clipPath>
  </defs>
  <g id="Layer_1-2" data-name="Layer 1">
    <g>
      <rect class="cls-1" x="51.34" y="0" width="141.67" height="684.67" rx="70.83" ry="70.83"/>
      <g class="cls-6">
        <g class="cls-7">
          <g>
            <g>
              <g>
                <path class="cls-4" d="M23.04,110.04c-.57,0-1.07-.38-1.22-.93-.09-.33-.04-.67.12-.96.17-.29.44-.5.77-.59l28.61-7.66h.2c.57,0,1.08.38,1.22.93.09.32.04.66-.13.95-.17.29-.44.5-.77.59l-28.61,7.66h-.2Z"/>
                <path class="cls-4" d="M55.24,101.41c-.57,0-1.07-.39-1.22-.94-.09-.32-.04-.66.13-.96s.44-.5.77-.59l7.53-2.02h.2c.57,0,1.07.38,1.22.93.09.32.04.66-.13.96-.17.29-.44.5-.77.59l-7.54,2.02h-.2Z"/>
              </g>
              <g>
                <path class="cls-4" d="M49.6,156.04c-.34,0-.65-.13-.89-.37-.24-.24-.37-.56-.37-.89s.13-.66.37-.9l20.85-20.85c.24-.24.56-.37.89-.37s.66.13.9.37c.24.24.37.55.37.89s-.13.66-.37.9l-20.85,20.85c-.24.24-.56.37-.89.37Z"/>
                <path class="cls-4" d="M73.17,132.48c-.34,0-.66-.13-.89-.37-.24-.24-.37-.56-.37-.89s.13-.66.37-.9l5.42-5.42c.24-.24.56-.37.89-.37s.65.13.89.37c.49.5.49,1.3,0,1.79l-5.43,5.43c-.24.24-.56.37-.89.37Z"/>
              </g>
              <g>
                <path class="cls-4" d="M95.48,182.61l-.2-.04c-.32-.09-.6-.3-.76-.59s-.21-.63-.13-.96l7.63-28.49c.15-.55.65-.94,1.22-.94h.13l.2.04c.67.18,1.07.87.89,1.54l-7.64,28.49c-.15.55-.65.94-1.22.94h-.13Z"/>
                <path class="cls-4" d="M104.12,150.41l-.19-.04c-.69-.19-1.09-.88-.91-1.55l1.99-7.41c.15-.55.65-.94,1.22-.94h.13l.19.04c.34.09.61.3.78.59.17.29.21.64.12.96l-1.98,7.41c-.15.55-.65.94-1.22.94h-.12Z"/>
              </g>
              <g>
                <path class="cls-4" d="M148.74,182.61c-.57,0-1.07-.38-1.22-.93l-7.63-28.49c-.18-.68.22-1.37.89-1.55l.13-.03h.2c.57,0,1.07.38,1.22.92l7.63,28.49c.09.32.04.67-.13.96s-.44.5-.77.59l-.13.03h-.2Z"/>
                <path class="cls-4" d="M140.11,150.41c-.57,0-1.07-.38-1.22-.93l-1.99-7.42c-.18-.67.22-1.36.89-1.55l.13-.03h.2c.57,0,1.08.38,1.22.93l1.99,7.41c.09.32.04.66-.12.96-.17.29-.44.5-.77.59l-.13.03h-.2Z"/>
              </g>
              <g>
                <path class="cls-4" d="M194.74,156.04c-.34,0-.65-.13-.89-.37l-20.85-20.85c-.49-.49-.49-1.29,0-1.79.24-.24.56-.37.9-.37s.66.13.9.37l20.85,20.85c.24.24.37.56.37.89s-.13.66-.37.9c-.24.24-.55.37-.89.37Z"/>
                <path class="cls-4" d="M171.18,132.48c-.33,0-.65-.13-.89-.37l-5.43-5.43c-.49-.49-.49-1.29,0-1.79.24-.24.56-.37.9-.37s.65.13.89.37l5.43,5.43c.24.24.37.56.37.89s-.13.65-.37.89c-.24.24-.56.37-.89.37Z"/>
              </g>
              <g>
                <path class="cls-4" d="M221.18,110.04l-.19-.04-28.49-7.63c-.33-.09-.6-.3-.77-.59-.17-.29-.21-.63-.12-.96.14-.55.65-.93,1.22-.93h.13l.19.04,28.49,7.63c.67.18,1.07.88.89,1.55-.15.55-.65.93-1.22.93h-.13Z"/>
                <path class="cls-4" d="M188.98,101.41l-.2-.04-7.41-1.98c-.33-.09-.6-.3-.77-.59s-.21-.63-.12-.96c.15-.55.65-.93,1.22-.93h.14l.2.05,7.4,1.98c.33.09.6.3.77.59s.21.63.12.96c-.14.55-.65.93-1.22.93h-.13Z"/>
              </g>
            </g>
            <g>
              <g>
                <path class="cls-4" d="M38.51,153.68c-.37,0-.73-.16-.97-.45-.22-.26-.32-.59-.29-.92s.19-.64.45-.86l28.5-23.91c.23-.19.51-.3.81-.3.38,0,.73.16.97.45.45.53.38,1.33-.15,1.78l-28.5,23.91c-.23.19-.51.3-.81.3Z"/>
                <path class="cls-4" d="M70.71,126.66c-.38,0-.73-.17-.97-.46-.21-.25-.32-.58-.29-.91s.19-.64.45-.86l7.42-6.22c.23-.19.51-.3.81-.3.38,0,.73.17.97.46.21.26.32.58.29.92s-.19.64-.45.86l-7.41,6.22c-.22.19-.51.3-.81.3Z"/>
              </g>
              <g>
                <path class="cls-4" d="M84.64,186.11l-.26-.08c-.65-.24-.99-.96-.75-1.62l12.72-34.96c.18-.5.66-.83,1.19-.83h.17l.25.07c.66.24,1,.97.76,1.62l-12.72,34.96c-.18.5-.66.83-1.19.83h-.18Z"/>
                <path class="cls-4" d="M99.02,146.61l-.25-.07c-.66-.24-1-.97-.76-1.62l3.31-9.09c.18-.5.66-.83,1.19-.83h.17l.25.07c.66.24,1,.97.76,1.62l-3.31,9.09c-.18.5-.66.83-1.19.83h-.17Z"/>
              </g>
              <g>
                <path class="cls-4" d="M141.14,191.03c-.62,0-1.14-.44-1.25-1.05l-6.46-36.63c-.06-.33.02-.67.21-.95.19-.28.49-.46.82-.52h.08s.13-.02.13-.02c.62,0,1.14.44,1.25,1.05l6.46,36.63c.06.33-.02.67-.21.95-.19.28-.48.46-.81.52l-.09.02h-.13Z"/>
                <path class="cls-4" d="M133.84,149.64c-.62,0-1.14-.44-1.25-1.05l-1.68-9.53c-.12-.69.34-1.34,1.03-1.46l.09-.02h.13c.61,0,1.14.44,1.25,1.04l1.68,9.53c.06.33-.02.67-.21.95s-.48.46-.82.52h-.08s-.13.02-.13.02Z"/>
              </g>
              <g>
                <path class="cls-4" d="M192.38,167.14c-.38,0-.73-.17-.97-.46l-23.91-28.49c-.22-.26-.32-.59-.29-.92.03-.34.19-.64.45-.86.23-.19.51-.3.81-.3.38,0,.73.16.97.45l23.91,28.5c.22.25.32.58.29.92-.03.34-.19.64-.45.86-.23.19-.52.3-.81.3Z"/>
                <path class="cls-4" d="M165.36,134.94c-.38,0-.73-.17-.97-.46l-6.22-7.41c-.22-.26-.32-.59-.29-.93.03-.34.19-.64.45-.86.22-.19.51-.29.81-.29.38,0,.73.17.97.45l6.22,7.42c.45.53.38,1.33-.15,1.78-.23.19-.52.3-.81.3Z"/>
              </g>
              <g>
                <path class="cls-4" d="M224.63,120.83l-.25-.07-34.96-12.72c-.32-.11-.57-.35-.71-.65-.14-.31-.16-.65-.04-.97.18-.5.66-.83,1.19-.83h.18l.26.08,34.96,12.72c.66.24.99.97.76,1.62-.18.5-.66.83-1.19.83h-.17Z"/>
                <path class="cls-4" d="M185.13,106.45l-.26-.08-9.09-3.31c-.66-.24-.99-.97-.76-1.62.18-.5.66-.83,1.19-.83h.17l.25.07,9.1,3.32c.66.24.99.97.75,1.62-.18.5-.66.83-1.19.83h-.18Z"/>
              </g>
            </g>
            <g>
              <g>
                <path class="cls-4" d="M19.54,120.83c-.53,0-1.01-.33-1.19-.83-.12-.32-.1-.66.04-.97.14-.31.4-.54.72-.65l35.12-12.78.27-.02c.53,0,1.01.33,1.19.83.12.32.1.66-.04.97-.14.31-.4.54-.71.65l-35.12,12.78-.27.02Z"/>
                <path class="cls-4" d="M59.04,106.45c-.53,0-1.01-.33-1.19-.83-.24-.65.1-1.38.75-1.62l9.27-3.37.27-.02c.53,0,1.01.33,1.19.83.24.65-.1,1.38-.76,1.62l-9.26,3.37-.27.02Z"/>
              </g>
              <g>
                <path class="cls-4" d="M51.97,167.14c-.29,0-.58-.1-.81-.29-.26-.22-.42-.52-.45-.86s.07-.67.29-.92l23.91-28.5c.24-.29.59-.45.97-.45.3,0,.59.11.81.3.26.21.42.52.45.85.03.34-.07.67-.29.92l-23.91,28.5c-.24.29-.59.45-.97.45Z"/>
                <path class="cls-4" d="M78.99,134.94c-.3,0-.58-.1-.81-.29-.54-.45-.61-1.25-.16-1.78l6.22-7.41c.24-.29.6-.45.97-.45.3,0,.59.11.81.3.53.45.6,1.25.15,1.78l-6.22,7.41c-.24.29-.59.45-.97.45Z"/>
              </g>
              <g>
                <path class="cls-4" d="M103.12,191.04l-.14-.02c-.32-.06-.61-.24-.8-.52-.19-.28-.27-.61-.21-.95l6.46-36.63c.11-.6.63-1.04,1.24-1.04h.08l.13.02c.33.06.62.24.82.52.19.28.27.61.21.95l-6.46,36.63c-.11.6-.63,1.04-1.24,1.04h-.09Z"/>
                <path class="cls-4" d="M110.41,149.64l-.14-.02c-.32-.06-.61-.24-.8-.52-.19-.28-.27-.61-.21-.95l1.68-9.53c.11-.6.63-1.04,1.24-1.04h.08l.13.02c.33.06.62.24.82.52.19.28.27.61.21.95l-1.68,9.53c-.11.6-.63,1.04-1.24,1.04h-.09Z"/>
              </g>
              <g>
                <path class="cls-4" d="M159.53,186.11c-.53,0-1.01-.33-1.19-.83l-12.72-34.96c-.24-.66.1-1.38.75-1.62l.17-.06.27-.02c.53,0,1,.33,1.19.83l12.73,34.96c.24.66-.1,1.38-.76,1.62l-.17.06-.27.02Z"/>
                <path class="cls-4" d="M145.15,146.61c-.53,0-1.01-.33-1.19-.83l-3.31-9.1c-.12-.32-.1-.66.04-.97.14-.31.4-.54.72-.65l.16-.06.26-.02c.53,0,1,.33,1.19.83l3.31,9.1c.24.66-.1,1.38-.75,1.62l-.17.06-.27.02Z"/>
              </g>
              <g>
                <path class="cls-4" d="M205.84,153.68c-.29,0-.58-.1-.81-.29l-28.5-23.91c-.53-.45-.6-1.25-.16-1.78.24-.29.59-.45.97-.45.3,0,.59.11.81.3l28.5,23.91c.26.22.42.52.45.86.03.34-.07.66-.29.92-.25.29-.6.45-.97.45Z"/>
                <path class="cls-4" d="M173.64,126.66c-.29,0-.58-.1-.81-.29l-7.42-6.22c-.26-.22-.42-.52-.45-.86s.07-.67.29-.92c.24-.29.59-.45.97-.45.3,0,.59.11.81.3l7.41,6.22c.26.22.42.52.45.86s-.07.66-.29.92c-.24.29-.59.45-.97.45Z"/>
              </g>
            </g>
            <g>
              <g>
                <path class="cls-4" d="M23.13,152.83c-.41,0-.8-.2-1.03-.54-.4-.58-.26-1.37.31-1.76l43.34-30.35c.22-.15.47-.23.73-.23.41,0,.8.2,1.04.54.4.57.26,1.36-.31,1.76l-43.34,30.35c-.22.15-.47.23-.72.23Z"/>
                <path class="cls-4" d="M72.11,118.53c-.42,0-.8-.2-1.04-.54-.4-.57-.25-1.36.31-1.76l11.28-7.9c.22-.15.47-.23.73-.23.41,0,.8.2,1.03.54.4.58.26,1.36-.31,1.76l-11.28,7.9c-.22.15-.47.23-.72.23Z"/>
              </g>
              <g>
                <path class="cls-4" d="M71.08,193.06c-.19,0-.37-.04-.54-.12-.63-.29-.9-1.05-.61-1.68l22.36-47.95c.21-.44.66-.73,1.15-.73.18,0,.36.04.53.12.3.14.54.39.66.71.12.32.1.66-.04.97l-22.36,47.95c-.21.44-.66.73-1.15.73Z"/>
                <path class="cls-4" d="M96.34,138.87c-.18,0-.36-.04-.53-.12-.64-.3-.91-1.05-.62-1.68l5.82-12.48c.21-.44.66-.73,1.15-.73.19,0,.37.04.54.12.3.14.53.39.65.71.12.32.1.66-.04.97l-5.82,12.48c-.21.44-.66.73-1.15.73Z"/>
              </g>
              <g>
                <path class="cls-4" d="M132.71,203.93c-.65,0-1.2-.51-1.26-1.16l-4.61-52.71c-.03-.34.07-.66.29-.92.22-.26.52-.42.86-.45h.11c.66,0,1.2.49,1.26,1.15l4.61,52.71c.03.34-.07.66-.29.92-.22.26-.52.42-.86.45h-.11Z"/>
                <path class="cls-4" d="M127.5,144.36c-.66,0-1.2-.49-1.26-1.15l-1.2-13.72c-.03-.34.07-.66.29-.92.22-.26.52-.42.86-.45h.11c.65,0,1.2.5,1.26,1.15l1.2,13.72c.03.34-.07.66-.29.92-.22.26-.52.42-.86.45h-.11Z"/>
              </g>
              <g>
                <path class="cls-4" d="M191.53,182.52c-.41,0-.8-.2-1.03-.54l-30.35-43.34c-.4-.57-.26-1.36.31-1.76.22-.15.47-.23.73-.23.41,0,.8.2,1.04.54l30.35,43.34c.4.57.26,1.36-.31,1.76-.22.15-.47.23-.73.23Z"/>
                <path class="cls-4" d="M157.23,133.54c-.41,0-.8-.2-1.04-.54l-7.9-11.28c-.19-.28-.27-.61-.21-.95s.25-.62.52-.81c.21-.15.46-.23.72-.23.41,0,.8.2,1.04.54l7.89,11.27c.19.27.27.61.21.94-.06.33-.24.62-.52.82-.21.15-.46.23-.72.23Z"/>
              </g>
              <g>
                <path class="cls-4" d="M231.75,134.57c-.19,0-.37-.04-.54-.12l-47.95-22.35c-.63-.29-.9-1.05-.61-1.68.21-.44.66-.73,1.15-.73.19,0,.37.04.54.12l47.95,22.36c.63.29.9,1.05.61,1.68-.21.44-.66.73-1.15.73Z"/>
                <path class="cls-4" d="M177.57,109.3c-.18,0-.36-.04-.53-.12l-12.48-5.82c-.63-.29-.9-1.05-.61-1.68.21-.44.66-.73,1.15-.73.19,0,.37.04.53.12l12.48,5.82c.63.29.91,1.05.61,1.68-.21.45-.66.73-1.15.73Z"/>
              </g>
            </g>
            <g>
              <g>
                <path class="cls-4" d="M12.59,134.57c-.49,0-.94-.29-1.15-.74-.29-.63-.02-1.38.61-1.67l47.95-22.36c.17-.08.35-.12.53-.12.49,0,.94.29,1.15.73.14.31.16.65.04.97-.12.32-.35.57-.66.71l-47.95,22.36c-.16.08-.35.12-.53.12Z"/>
                <path class="cls-4" d="M66.78,109.3c-.49,0-.94-.29-1.15-.73-.29-.63-.02-1.39.61-1.68l12.48-5.82c.16-.08.35-.12.53-.12.49,0,.94.29,1.15.73.29.63.02,1.38-.61,1.68l-12.47,5.82c-.17.08-.35.12-.53.12Z"/>
              </g>
              <g>
                <path class="cls-4" d="M52.82,182.52c-.26,0-.51-.08-.73-.23-.28-.19-.46-.48-.52-.82-.06-.33.02-.67.21-.94l30.34-43.34c.24-.34.62-.54,1.04-.54.26,0,.51.08.72.23.28.19.46.48.52.82.06.33-.02.67-.21.94l-30.34,43.34c-.23.33-.62.54-1.04.54Z"/>
                <path class="cls-4" d="M87.12,133.54c-.26,0-.51-.08-.72-.23-.27-.19-.46-.48-.52-.81s.01-.67.21-.95l7.9-11.28c.23-.34.62-.54,1.03-.54.26,0,.51.08.73.23.28.19.46.48.52.82.06.33-.02.67-.21.94l-7.89,11.27c-.24.34-.62.54-1.04.54Z"/>
              </g>
              <g>
                <path class="cls-4" d="M111.55,203.92c-.36-.03-.67-.19-.88-.45-.22-.26-.32-.59-.29-.92l4.61-52.71c.06-.66.6-1.15,1.26-1.15h.1c.7.07,1.22.68,1.16,1.37l-4.61,52.71c-.06.66-.6,1.15-1.26,1.15h-.08Z"/>
                <path class="cls-4" d="M116.76,144.36c-.72-.06-1.23-.68-1.17-1.37l1.2-13.72c.06-.66.6-1.15,1.26-1.15h.11c.69.07,1.21.68,1.15,1.37l-1.2,13.72c-.06.66-.6,1.15-1.26,1.15h-.09Z"/>
              </g>
              <g>
                <path class="cls-4" d="M173.27,193.06c-.49,0-.94-.29-1.14-.73l-22.36-47.95c-.29-.63-.02-1.39.61-1.68.16-.08.35-.12.54-.12.49,0,.94.29,1.15.73l22.36,47.95c.29.63.02,1.39-.61,1.68-.17.08-.35.12-.53.12Z"/>
                <path class="cls-4" d="M148,138.87c-.49,0-.94-.29-1.14-.73l-5.82-12.48c-.29-.63-.02-1.38.61-1.68.16-.08.35-.12.53-.12.49,0,.94.29,1.15.73l5.82,12.48c.14.31.16.65.04.97-.12.32-.35.57-.66.71-.17.08-.35.12-.53.12Z"/>
              </g>
              <g>
                <path class="cls-4" d="M221.21,152.83c-.26,0-.51-.08-.72-.23l-43.34-30.34c-.28-.19-.46-.48-.52-.82-.06-.33.02-.67.21-.94.23-.33.62-.54,1.03-.54.26,0,.51.08.72.23l43.34,30.34c.28.19.46.48.52.82.06.33-.02.67-.21.94-.23.33-.62.54-1.03.54Z"/>
                <path class="cls-4" d="M172.24,118.53c-.26,0-.5-.08-.72-.22l-11.28-7.9c-.28-.19-.46-.48-.52-.82-.06-.33.02-.67.21-.95.23-.34.62-.54,1.03-.54.26,0,.51.08.72.23l11.28,7.9c.57.4.71,1.19.31,1.76-.24.34-.63.54-1.04.54Z"/>
              </g>
            </g>
            <g>
              <g>
                <path class="cls-4" d="M1.26,153.28c-.45,0-.87-.24-1.09-.63-.17-.29-.21-.63-.13-.96s.3-.6.59-.77l63.41-36.61c.19-.11.41-.17.63-.17.45,0,.87.24,1.1.63.17.29.21.63.13.96s-.3.6-.59.77L1.9,153.11c-.2.11-.41.17-.63.17Z"/>
                <path class="cls-4" d="M72.91,111.92c-.45,0-.87-.24-1.1-.63-.35-.61-.14-1.38.46-1.73l16.5-9.52c.19-.11.41-.17.63-.17.45,0,.87.24,1.09.63.35.6.14,1.38-.46,1.72l-16.5,9.52c-.18.11-.4.17-.63.17Z"/>
              </g>
              <g>
                <path class="cls-4" d="M52.37,204.38c-.22,0-.44-.06-.63-.17-.3-.17-.51-.44-.59-.77s-.04-.67.13-.96l36.61-63.4c.22-.39.64-.63,1.09-.63.22,0,.44.06.63.17.29.17.5.44.59.77.09.33.04.67-.13.96l-36.61,63.4c-.23.39-.65.63-1.1.63Z"/>
                <path class="cls-4" d="M93.73,132.74c-.22,0-.44-.06-.64-.17-.29-.17-.5-.44-.59-.77-.09-.33-.04-.67.13-.96l9.52-16.49c.22-.39.64-.63,1.09-.63.22,0,.44.06.63.17.29.17.5.44.59.77s.04.67-.13.96l-9.52,16.49c-.23.39-.64.63-1.09.63Z"/>
              </g>
              <g>
                <path class="cls-4" d="M122.17,223.09c-.7,0-1.26-.57-1.26-1.26v-73.21c0-.7.57-1.26,1.27-1.26s1.26.57,1.26,1.26v73.21c0,.7-.57,1.26-1.27,1.26Z"/>
                <path class="cls-4" d="M122.17,140.36c-.7,0-1.26-.57-1.26-1.26v-19.05c0-.7.57-1.26,1.26-1.26s1.26.57,1.26,1.26v19.05c0,.7-.57,1.26-1.26,1.26Z"/>
              </g>
              <g>
                <path class="cls-4" d="M191.98,204.38c-.45,0-.87-.24-1.1-.63l-36.6-63.41c-.35-.6-.14-1.38.46-1.73.19-.11.41-.17.63-.17.45,0,.87.24,1.09.63l36.61,63.41c.17.29.21.63.13.96s-.3.6-.59.77c-.2.11-.41.17-.63.17Z"/>
                <path class="cls-4" d="M150.62,132.74c-.45,0-.87-.24-1.09-.63l-9.52-16.5c-.17-.29-.21-.63-.13-.96s.3-.6.59-.77c.19-.11.41-.17.63-.17.45,0,.87.24,1.09.63l9.53,16.5c.35.6.14,1.38-.46,1.73-.19.11-.41.17-.63.17Z"/>
              </g>
              <g>
                <path class="cls-4" d="M243.08,153.28c-.22,0-.44-.06-.63-.17l-63.41-36.61c-.6-.35-.81-1.12-.46-1.72.23-.39.65-.63,1.1-.63.22,0,.44.06.63.17l63.4,36.61c.29.17.5.44.59.77.09.33.04.67-.13.96-.22.39-.64.63-1.09.63Z"/>
                <path class="cls-4" d="M171.43,111.92c-.23,0-.45-.06-.64-.18l-16.48-9.52c-.6-.35-.81-1.12-.46-1.72.23-.39.65-.63,1.1-.63.22,0,.44.06.63.17l16.5,9.53c.6.35.81,1.12.46,1.72-.23.39-.65.64-1.1.64Z"/>
              </g>
            </g>
          </g>
        </g>
      </g>
      <rect class="cls-5" x="55.67" y="154.67" width="133" height="526.22" rx="66.5" ry="66.5"/>
    </g>
    <path class="cls-2" d="M63.65,48.36l-13.91,8.09,1.21,3.9h0s3.99,12.81,3.99,12.81c-.91-.09-1.98.26-2.86,1.03-1.43,1.26-1.83,3.15-.89,4.23.94,1.08,2.87.93,4.31-.33,1.02-.9,1.51-2.11,1.37-3.13h.01s-.02-.06-.02-.06c-.04-.22-.1-.43-.19-.62l-4.55-14.63,11.52-6.85,4.02,12.92c-.92-.1-1.99.25-2.88,1.03-1.44,1.26-1.84,3.15-.9,4.23.95,1.08,2.87.93,4.31-.33,1.2-1.05,1.66-2.53,1.24-3.62h0s-4.64-14.92-4.64-14.92h0s-1.17-3.75-1.17-3.75Z"/>
    <path class="cls-2" d="M185.5,48.16c.04-1.08-.32-2.17-1.01-2.97-.67-.79-1.61-1.27-2.51-1.42-.53-.09-1.03-.08-1.5,0,.06-.23.12-.46.19-.69.12-.44.26-.89.39-1.33.55-.19,1.1-.41,1.62-.69,1.26-.62,2.41-1.56,3.15-2.79,2.18-3.68,1.81-6.1.77-6.47-2.34-.68-3.79,3.18-5.15,7.26-.46.23-.94.44-1.43.61l-.89.32c-.29.1-.61.23-.94.37-1.28.54-2.48,1.3-3.46,2.35-.99,1.03-1.65,2.5-1.56,3.95.07,1.45.74,2.72,1.63,3.66.88.9,1.91,1.56,3,1.98-.15.6-.31,1.18-.46,1.72-.29,1.5-1.33,2.48-2.35,2.51-.76,0-1.28-.43-1.55-.87.04.03.08.06.12.08.61.31,1.37.06,1.67-.55.31-.62.05-1.36-.56-1.67-.61-.3-1.36-.06-1.67.56-.02.05-.04.1-.06.15h0s0,0,0,.01c-.09.26-.09.54,0,.78.01.06.02.11.04.18.08.31.26.67.58,1,.33.33.8.62,1.42.7.61.08,1.34-.15,1.87-.67.27-.25.51-.56.67-.92.17-.39.27-.73.39-1.12.15-.54.31-1.11.46-1.7,1,.31,2.04.41,3.06.32,1.15-.15,2.25-.71,2.97-1.59.74-.86,1.12-1.97,1.15-3.05ZM186.42,33.45c.37.34.15.97-.03,1.35-.44.9-1.08,1.71-1.89,2.3-.78.57-1.55,1.09-2.37,1.57,1.56-3.98,3.53-5.92,4.29-5.22ZM175.57,49.63c-.67-.88-1.1-1.95-1.05-3,.05-1.04.58-2,1.41-2.71.83-.71,1.91-1.2,3.01-1.57.26-.09.54-.17.86-.26l.44-.12c.11-.03.21-.06.32-.09-.1.35-.21.7-.31,1.05-.09.31-.17.61-.26.92-.94.27-1.7.82-2.17,1.4-.79.99-.95,1.97-.98,2.58-.01.31,0,.54.02.7.02.16.03.24.03.24,0,0,.06-.32.25-.89.2-.55.56-1.35,1.33-2,.31-.27.7-.5,1.14-.66-.35,1.29-.67,2.53-.97,3.7-.24.91-.46,1.79-.67,2.62-.93-.45-1.77-1.11-2.4-1.94ZM183.8,50.79c-.52.79-1.45,1.35-2.49,1.44-.92.09-1.89-.07-2.81-.42.21-.86.43-1.77.65-2.73.29-1.26.62-2.6.98-3.98.5-.11,1.03-.12,1.58.01,1.25.3,2.41,1.41,2.63,3.1.12.83-.03,1.77-.54,2.58Z"/>
    <path class="cls-2" d="M79.53,29.36c-.19-.21-.52-.22-.73-.03-.21.19-.22.52-.03.73,1.49,1.62.25,3.63-1.14,5.54l-.27.38c-.62.87-1.01,1.54-1.25,2.1l-6.04-14.96c1.12.23,2.51-.24,3.57-1.33,1.47-1.52,1.74-3.65.61-4.76-1.14-1.11-3.26-.77-4.74.75-1.25,1.29-1.63,3.01-1.02,4.18l7.41,18.36c.11.26.41.39.67.29s.39-.41.29-.67v-.04c-.09-.69-.03-1.4,1.34-3.32l.27-.37c1.14-1.56,3.26-4.46,1.07-6.85Z"/>
    <g>
      <path class="cls-2" d="M171.56,18.68c.95,0,1.71-.77,1.71-1.72s-.77-1.71-1.71-1.71-1.71.77-1.71,1.71.77,1.72,1.71,1.72Z"/>
      <path class="cls-2" d="M171.56,22.52c-.95,0-1.71.76-1.71,1.71s.77,1.71,1.71,1.71,1.71-.77,1.71-1.71-.77-1.71-1.71-1.71Z"/>
      <path class="cls-2" d="M165.03,11.71c-1.18-.78-2.49-1.25-3.78-1.44-1.29-.19-2.55-.11-3.69.19-1.14.3-2.15.83-2.93,1.49-3.77,3.17-2.48,7.72.9,7.72,1.76,0,3.19-1.43,3.19-3.19,0-1.23-.7-2.29-1.72-2.82.36-.27.79-.52,1.31-.7,1.52-.55,3.71-.51,5.59.55.94.53,1.77,1.3,2.37,2.28.61.98.97,2.15,1.1,3.37.13,1.25.04,2.51-.14,3.76-.19,1.24-.52,2.44-.96,3.56-.87,2.25-2.15,4.16-3.42,5.64-1.26,1.49-2.53,2.54-3.44,3.24-.91.69-1.47,1.01-1.47,1.01-.12.07-.17.23-.1.36.07.13.23.18.36.11h0s.6-.32,1.56-1c.96-.67,2.27-1.73,3.67-3.19,1.39-1.46,2.83-3.38,3.88-5.72.53-1.17.95-2.43,1.22-3.76.27-1.32.42-2.71.38-4.11-.05-1.41-.37-2.87-1.05-4.16-.67-1.3-1.69-2.41-2.86-3.18Z"/>
    </g>
  </g>
</svg>