<?xml version="1.0" encoding="UTF-8"?>
<svg id="Layer_2" data-name="Layer 2" xmlns="http://www.w3.org/2000/svg" width="167.46" height="167.46" viewBox="0 0 167.46 167.46">
  <defs>
    <style>
      .cls-1 {
        fill: #f7f1e1;
      }

      .cls-1, .cls-2, .cls-3 {
        stroke-width: 0px;
      }

      .cls-2 {
        fill: #ede1c0;
      }

      .cls-3 {
        fill: #dec683;
      }
    </style>
  </defs>
  <g id="Layer_1-2" data-name="Layer 1">
    <g>
      <g>
        <g>
          <g>
            <path class="cls-2" d="M63.43,147.77c-.77-.29-1.54-.56-2.32-.82-.39-.14-.79-.24-1.16-.4l-1.12-.47,4.95-12.46.9.38c.3.13.63.2.94.31.63.21,1.25.43,1.87.67l-4.05,12.78Z"/>
            <path class="cls-2" d="M57.77,145.66c-.77-.27-1.49-.64-2.22-.98l-1.1-.5c-.37-.16-.74-.32-1.09-.53l6.03-11.98c.27.17.57.3.87.42l.88.4c.58.27,1.15.58,1.78.79l-5.16,12.38Z"/>
            <path class="cls-2" d="M52.38,143.12c-1.46-.69-2.79-1.58-4.19-2.36l7.07-11.39c1.13.61,2.18,1.34,3.35,1.88l-6.23,11.87Z"/>
            <path class="cls-2" d="M47.26,140.15c-.66-.45-1.33-.88-2.01-1.31-.63-.49-1.28-.97-1.93-1.43l8.06-10.71c.52.37,1.03.75,1.53,1.15.54.34,1.08.68,1.61,1.04l-7.27,11.27Z"/>
            <path class="cls-2" d="M42.43,136.74c-.61-.52-1.23-1.02-1.86-1.52l-.47-.37-.44-.41-.89-.81,8.99-9.95.71.65.35.33.38.29c.51.39,1,.8,1.48,1.21l-8.24,10.58Z"/>
            <path class="cls-2" d="M37.93,132.9c-.6-.54-1.13-1.14-1.72-1.69l-.87-.84-.8-.9,9.84-9.11.64.73.7.67c.47.44.89.93,1.37,1.36l-9.15,9.8Z"/>
            <path class="cls-2" d="M33.78,128.64c-.58-.57-1.06-1.22-1.57-1.84-.51-.63-1.07-1.21-1.52-1.88l10.61-8.2c.35.55.82,1,1.22,1.51.42.49.79,1.03,1.26,1.47l-9.99,8.95Z"/>
            <path class="cls-2" d="M30.01,124.02l-.74-.96c-.24-.32-.45-.67-.68-1.01-.44-.68-.93-1.33-1.37-2.01l11.29-7.24c.35.55.75,1.06,1.1,1.61.18.27.34.55.54.81l.6.77-10.74,8.03Z"/>
            <path class="cls-2" d="M26.64,119.07l-.64-1.03-.33-.51-.29-.54c-.38-.72-.77-1.43-1.18-2.13l11.88-6.21c.33.56.65,1.13.95,1.71l.23.43.27.41.52.83-11.41,7.05Z"/>
            <path class="cls-2" d="M23.71,113.85c-.35-.73-.72-1.46-1.08-2.18-.3-.75-.62-1.5-.95-2.24l12.38-5.14c.27.59.52,1.19.76,1.8.29.58.6,1.16.87,1.75l-11.98,6.02Z"/>
            <path class="cls-2" d="M21.25,108.38c-.27-.76-.56-1.52-.85-2.27-.3-.75-.48-1.54-.75-2.31l12.79-4.03c.22.61.35,1.25.6,1.85.24.6.47,1.21.68,1.82l-12.47,4.94Z"/>
            <path class="cls-2" d="M19.29,102.74c-.37-1.57-.9-3.1-1.18-4.69l13.1-2.88c.21,1.27.65,2.5.94,3.76l-12.85,3.82Z"/>
            <path class="cls-2" d="M17.86,96.95l-.14-.59-.09-.6-.19-1.19-.21-1.19c-.08-.39-.09-.8-.14-1.2l13.3-1.71c.04.32.04.64.11.95l.18.95.15.95.07.48.12.47-13.14,2.66Z"/>
            <path class="cls-2" d="M16.96,91.09l-.16-1.19-.06-1.2c-.03-.8-.15-1.6-.16-2.4l13.4-.51c0,.64.11,1.27.13,1.91l.04.96.13.95-13.33,1.48Z"/>
            <path class="cls-2" d="M16.57,85.18l-.03-1.2-.02-.6.03-.6c.04-.8.06-1.6.07-2.4l13.39.69c0,.64-.02,1.28-.05,1.91l-.03.48.02.48.03.96-13.41.29Z"/>
            <path class="cls-2" d="M16.7,79.27c.07-.8.13-1.6.18-2.4.11-.8.23-1.59.33-2.39l13.28,1.88c-.07.64-.17,1.27-.27,1.91-.03.64-.07,1.28-.14,1.91l-13.38-.91Z"/>
            <path class="cls-2" d="M17.34,73.38c.35-1.58.52-3.18.97-4.75l13.06,3.04c-.37,1.26-.48,2.55-.78,3.81l-13.24-2.1Z"/>
            <path class="cls-2" d="M18.56,67.52c.14-.8.44-1.57.65-2.36l.33-1.18.16-.59.21-.58,12.74,4.17-.18.46c-.05.16-.08.32-.13.48l-.26.96c-.17.64-.43,1.26-.53,1.9l-13.01-3.26Z"/>
            <path class="cls-2" d="M20.3,61.73c.47-1.58,1.16-3.04,1.73-4.57l12.33,5.27c-.44,1.23-1.02,2.4-1.39,3.68l-12.67-4.38Z"/>
            <path class="cls-2" d="M22.5,56.14c.35-.73.68-1.46,1.01-2.2l1.13-2.13,11.81,6.35c-.29.57-.61,1.13-.91,1.7-.25.6-.52,1.18-.8,1.77l-12.24-5.48Z"/>
            <path class="cls-2" d="M25.14,50.81c.87-1.35,1.58-2.79,2.53-4.09l11.2,7.37c-.77,1.02-1.31,2.19-2.02,3.26l-11.7-6.54Z"/>
            <path class="cls-2" d="M28.28,45.79l.32-.51.36-.48.72-.96c.47-.65.92-1.31,1.45-1.91l10.49,8.35c-.44.47-.78,1.01-1.16,1.52l-.57.77-.29.38-.25.41-11.07-7.56Z"/>
            <path class="cls-2" d="M31.84,41.07l.74-.94.82-.88c.55-.58,1.05-1.22,1.61-1.79l9.71,9.25c-.46.45-.84.97-1.28,1.43l-.66.7-.59.76-10.35-8.52Z"/>
            <path class="cls-2" d="M35.8,36.67l.84-.86.42-.44.45-.4c.6-.54,1.19-1.08,1.78-1.64l8.85,10.07c-.46.45-.93.89-1.42,1.31l-.37.32-.33.35-.67.69-9.55-9.41Z"/>
            <path class="cls-2" d="M40.16,32.62l1.86-1.55c.66-.47,1.3-.96,1.94-1.45l7.92,10.82c-.51.4-1.03.79-1.56,1.16-.49.42-.98.85-1.48,1.25l-8.68-10.22Z"/>
            <path class="cls-2" d="M44.86,28.95c.68-.44,1.35-.9,2.01-1.37.66-.47,1.39-.84,2.07-1.28l6.94,11.47c-.54.36-1.13.64-1.66,1.02-.53.38-1.06.74-1.61,1.1l-7.74-10.95Z"/>
            <path class="cls-2" d="M49.89,25.7c1.44-.74,2.82-1.61,4.31-2.27l5.9,12.04c-1.2.51-2.29,1.23-3.46,1.81l-6.75-11.59Z"/>
            <path class="cls-2" d="M55.21,22.93l.54-.27.56-.23,1.12-.48,1.11-.49c.37-.16.76-.28,1.14-.42l4.82,12.51c-.3.12-.62.2-.92.33l-.89.4-.9.38-.45.18-.43.22-5.7-12.14Z"/>
            <path class="cls-2" d="M60.74,20.64c.38-.14.75-.31,1.14-.43l1.16-.36,1.15-.38c.38-.14.77-.26,1.16-.35l3.69,12.89c-.32.06-.63.17-.93.28l-.92.3-.93.28c-.31.1-.6.24-.91.35l-4.61-12.59Z"/>
            <path class="cls-2" d="M66.44,18.84c1.54-.49,3.14-.72,4.7-1.12l2.53,13.17c-1.25.34-2.53.5-3.76.9l-3.48-12.95Z"/>
            <path class="cls-2" d="M72.25,17.55c.8-.11,1.58-.3,2.38-.39.8-.08,1.6-.17,2.39-.28l1.35,13.34c-.63.09-1.27.16-1.91.22-.64.07-1.26.23-1.9.32l-2.31-13.21Z"/>
            <path class="cls-2" d="M78.12,16.77c.8-.04,1.6-.1,2.4-.17.8-.05,1.6-.01,2.4-.05l.16,13.41c-.64.03-1.28,0-1.91.03-.64.06-1.27.11-1.91.14l-1.13-13.36Z"/>
            <path class="cls-2" d="M84.03,16.52c1.6.11,3.2.03,4.8.24l-1.04,13.37c-1.27-.18-2.55-.09-3.82-.2l.07-13.41Z"/>
            <path class="cls-2" d="M89.94,16.84c.8.02,1.59.2,2.39.28.8.12,1.6.15,2.39.35l-2.23,13.22c-.63-.17-1.27-.18-1.91-.27-.64-.07-1.27-.23-1.91-.23l1.27-13.35Z"/>
            <path class="cls-2" d="M95.82,17.68c1.6.21,3.16.71,4.75,1.02l-3.38,12.97c-1.28-.23-2.53-.66-3.82-.81l2.45-13.18Z"/>
            <path class="cls-2" d="M101.67,19.03c.78.24,1.57.46,2.37.67.77.29,1.54.56,2.32.82l-4.5,12.63c-.63-.21-1.25-.43-1.87-.67-.64-.16-1.28-.34-1.91-.53l3.6-12.92Z"/>
            <path class="cls-2" d="M107.43,20.87c1.48.67,3.04,1.16,4.47,1.9l-5.6,12.18c-1.14-.61-2.41-.98-3.59-1.53l4.71-12.55Z"/>
            <path class="cls-2" d="M112.93,23.24c.75.3,1.43.73,2.15,1.09.7.39,1.45.7,2.12,1.14l-6.66,11.64c-.52-.37-1.13-.6-1.69-.91-.57-.29-1.11-.65-1.72-.88l5.8-12.09Z"/>
            <path class="cls-2" d="M118.15,26.05c1.42.75,2.69,1.74,4.06,2.57l-7.67,11c-1.1-.64-2.1-1.46-3.24-2.04l6.85-11.53Z"/>
            <path class="cls-2" d="M123.1,29.29c.63.49,1.31.92,1.93,1.42.61.52,1.23,1.02,1.86,1.52l-8.62,10.27c-.51-.39-1-.8-1.48-1.21-.5-.4-1.04-.74-1.55-1.13l7.85-10.87Z"/>
            <path class="cls-2" d="M127.74,32.96c.59.55,1.19,1.08,1.79,1.6.6.54,1.13,1.14,1.72,1.69l-9.5,9.46c-.47-.44-.89-.93-1.37-1.36-.49-.41-.97-.84-1.43-1.28l8.79-10.12Z"/>
            <path class="cls-2" d="M132.06,37.03c1.05,1.22,2.22,2.34,3.2,3.63l-10.3,8.58c-.78-1.04-1.73-1.91-2.55-2.91l9.66-9.3Z"/>
            <path class="cls-2" d="M135.98,41.52c.27.3.52.62.75.95l.72.97.74.96c.24.32.45.67.68,1.01l-11.02,7.64c-.18-.27-.34-.55-.54-.81l-.6-.77-.58-.78c-.18-.27-.38-.53-.6-.76l10.44-8.41Z"/>
            <path class="cls-2" d="M139.51,46.34c.22.34.48.66.69,1l.62,1.04.64,1.03.33.51.29.54-11.65,6.64-.23-.43-.27-.41-.52-.83-.5-.84c-.17-.28-.38-.53-.56-.8l11.15-7.45Z"/>
            <path class="cls-2" d="M142.61,51.46c.84,1.39,1.46,2.9,2.21,4.33l-12.19,5.58c-.62-1.15-1.1-2.37-1.78-3.48l11.76-6.44Z"/>
            <path class="cls-2" d="M145.25,56.84c.3.75.68,1.47.95,2.24.27.76.56,1.52.85,2.27l-12.64,4.49c-.24-.6-.47-1.21-.68-1.82-.21-.61-.53-1.19-.77-1.79l12.28-5.38Z"/>
            <path class="cls-2" d="M147.42,62.42c.24.77.49,1.54.75,2.31l.62,2.34-12.98,3.35c-.18-.62-.33-1.25-.49-1.88-.22-.61-.42-1.23-.61-1.85l12.71-4.28Z"/>
            <path class="cls-2" d="M149.09,68.15c.16.79.32,1.58.51,2.36l.14.59.09.6.19,1.19-13.23,2.19-.15-.95-.07-.48-.12-.47c-.15-.63-.29-1.26-.4-1.89l13.04-3.13Z"/>
            <path class="cls-2" d="M150.21,73.98c.14.79.17,1.6.29,2.39l.16,1.19.06,1.2-13.37,1-.04-.96-.13-.95c-.1-.63-.11-1.28-.23-1.91l13.26-1.96Z"/>
            <path class="cls-2" d="M150.8,79.88c.1.8.07,1.6.09,2.4l.03,1.2.02.6-.03.6-13.41-.2.03-.48-.02-.48-.03-.96c0-.64.02-1.28-.07-1.91l13.39-.77Z"/>
            <path class="cls-2" d="M150.87,85.79c.02,1.6-.22,3.19-.29,4.8l-13.34-1.4c.04-1.28.26-2.55.22-3.83l13.4.43Z"/>
            <path class="cls-2" d="M150.42,91.69l-.3,2.39c-.16.79-.31,1.58-.45,2.38l-13.16-2.57c.1-.64.23-1.27.36-1.9.08-.64.14-1.28.24-1.91l13.31,1.62Z"/>
            <path class="cls-2" d="M149.46,97.57c-.42,1.57-.69,3.17-1.22,4.73l-12.88-3.72c.44-1.26.64-2.55.99-3.8l13.11,2.79Z"/>
            <path class="cls-2" d="M147.94,103.4l-.16.59-.21.58-.41,1.16c-.28.77-.48,1.57-.83,2.31l-12.51-4.83c.29-.58.44-1.24.66-1.86l.33-.93c.06-.16.12-.31.17-.47l.12-.48,12.82,3.93Z"/>
            <path class="cls-2" d="M145.9,109.08c-.54,1.54-1.32,2.95-1.95,4.44l-12.03-5.92c.48-1.2,1.13-2.32,1.55-3.56l12.43,5.04Z"/>
            <path class="cls-2" d="M143.43,114.51c-.38.71-.74,1.42-1.11,2.14-.42.68-.84,1.37-1.24,2.06l-11.46-6.96c.32-.56.65-1.1.99-1.64.29-.57.57-1.15.88-1.71l11.93,6.12Z"/>
            <path class="cls-2" d="M140.51,119.67c-.45.66-.9,1.33-1.33,2l-.32.51-.36.48-.72.96-10.79-7.96.57-.77.29-.38.25-.41c.34-.54.69-1.07,1.06-1.59l11.34,7.16Z"/>
            <path class="cls-2" d="M137.13,124.52c-.47.65-1.02,1.23-1.51,1.87l-.74.94-.82.88-10.04-8.89.66-.7.59-.76c.39-.51.84-.97,1.21-1.49l10.66,8.14Z"/>
            <path class="cls-2" d="M133.32,129.05c-.27.29-.51.62-.81.89l-.86.85-.84.86-.42.44-.45.4-9.21-9.75.37-.32.33-.35.67-.69.69-.67c.24-.22.42-.48.64-.72l9.89,9.06Z"/>
            <path class="cls-2" d="M129.11,133.24c-1.14,1.14-2.46,2.09-3.67,3.16l-8.31-10.53c.96-.87,2.03-1.61,2.93-2.53l9.04,9.9Z"/>
            <path class="cls-2" d="M124.54,137.06c-.66.47-1.27,1.01-1.94,1.45-.68.44-1.35.9-2.01,1.37l-7.34-11.22c.53-.38,1.06-.75,1.61-1.1.55-.35,1.02-.79,1.56-1.17l8.13,10.66Z"/>
            <path class="cls-2" d="M119.63,140.48c-.7.41-1.39.84-2.07,1.28-.71.39-1.43.76-2.14,1.16l-6.33-11.82c.56-.33,1.14-.62,1.72-.93.54-.36,1.1-.7,1.66-1.03l7.16,11.34Z"/>
            <path class="cls-2" d="M114.44,143.47c-.74.34-1.47.7-2.19,1.06l-.54.27-.56.23-1.12.48-5.26-12.33.9-.38.45-.18.43-.22c.58-.3,1.16-.58,1.76-.85l6.13,11.92Z"/>
            <path class="cls-2" d="M108.99,145.97c-.75.31-1.52.55-2.27.85-.38.14-.75.31-1.14.43l-1.16.36-4.15-12.75.93-.28c.31-.1.6-.24.91-.35.6-.25,1.23-.43,1.83-.68l5.06,12.42Z"/>
            <path class="cls-2" d="M103.35,147.96c-.76.29-1.56.44-2.33.66-.78.21-1.55.46-2.34.59l-3.01-13.07c.64-.09,1.25-.31,1.88-.48.62-.18,1.26-.28,1.87-.53l3.94,12.82Z"/>
            <path class="cls-2" d="M97.58,149.45l-1.18.27-1.19.19c-.8.11-1.58.3-2.38.39l-1.83-13.28c.64-.07,1.26-.23,1.9-.32l.95-.14.94-.23,2.79,13.12Z"/>
            <path class="cls-2" d="M91.73,150.42l-1.19.15-.6.08-.6.03c-.8.04-1.6.1-2.4.17l-.64-13.39c.64-.06,1.27-.11,1.91-.14l.48-.02.48-.07.95-.12,1.61,13.31Z"/>
            <path class="cls-2" d="M85.82,150.88c-.8,0-1.6.03-2.4.06-.8-.04-1.6-.07-2.4-.09l.56-13.4c.64,0,1.28.04,1.91.08.64-.04,1.28-.05,1.91-.05l.42,13.4Z"/>
            <path class="cls-2" d="M79.91,150.82c-1.59-.17-3.2-.21-4.79-.49l1.75-13.29c1.27.23,2.55.24,3.82.39l-.78,13.39Z"/>
            <path class="cls-2" d="M74.02,150.2c-.4-.03-.8-.11-1.19-.19l-1.19-.22c-.79-.14-1.59-.25-2.38-.48l2.92-13.09c.63.19,1.27.27,1.91.38l.95.18c.32.07.63.14.95.16l-1.97,13.26Z"/>
            <path class="cls-2" d="M68.16,149.04l-1.19-.26c-.4-.09-.78-.24-1.18-.35-.78-.24-1.57-.46-2.37-.67l4.05-12.78c.64.16,1.28.34,1.91.53.32.09.63.21.95.28l.96.21-3.14,13.04Z"/>
          </g>
          <path class="cls-2" d="M58.43,163.51c-.95-.34-1.91-.68-2.87-1.01-.48-.17-.97-.31-1.44-.5l-1.4-.58,4.95-12.46,1.18.49c.39.16.81.27,1.21.41.81.27,1.62.56,2.42.85l-4.05,12.78Z"/>
          <path class="cls-2" d="M51.42,160.91c-.95-.34-1.85-.79-2.76-1.22l-1.37-.63c-.46-.2-.92-.41-1.35-.66l6.03-11.98c.36.21.75.39,1.14.55l1.15.53c.76.36,1.52.75,2.32,1.02l-5.16,12.38Z"/>
          <path class="cls-2" d="M44.7,157.75c-1.81-.87-3.49-1.97-5.23-2.95l7.07-11.39c1.47.82,2.86,1.75,4.39,2.47l-6.23,11.87Z"/>
          <path class="cls-2" d="M38.31,154.03l-2.51-1.65c-.8-.6-1.6-1.2-2.41-1.78l8.06-10.71c.68.49,1.35.99,2.02,1.5.71.45,1.41.9,2.11,1.37l-7.27,11.27Z"/>
          <path class="cls-2" d="M32.27,149.77c-.77-.64-1.54-1.27-2.33-1.9l-.59-.47-.55-.51-1.11-1.01,8.99-9.95.93.85.46.43.49.39c.66.52,1.31,1.05,1.95,1.59l-8.24,10.58Z"/>
          <path class="cls-2" d="M26.65,144.97c-.74-.67-1.42-1.42-2.14-2.11l-1.07-1.05-1.01-1.12,9.84-9.11.84.94.91.88c.61.58,1.17,1.21,1.8,1.77l-9.15,9.8Z"/>
          <path class="cls-2" d="M21.48,139.66c-.71-.71-1.32-1.52-1.96-2.29-.63-.78-1.32-1.51-1.9-2.34l10.61-8.2c.47.7,1.07,1.31,1.59,1.97.54.65,1.05,1.33,1.65,1.92l-9.99,8.95Z"/>
          <path class="cls-2" d="M16.78,133.91l-.92-1.2c-.3-.4-.56-.84-.85-1.25-.55-.84-1.15-1.65-1.7-2.5l11.29-7.24c.45.72.97,1.39,1.43,2.1.24.35.46.71.71,1.05l.77,1.01-10.74,8.03Z"/>
          <path class="cls-2" d="M12.59,127.76l-.79-1.29-.4-.64-.36-.67c-.48-.89-.96-1.77-1.46-2.65l11.88-6.21c.42.74.83,1.48,1.23,2.23l.3.56.34.54.67,1.08-11.41,7.05Z"/>
          <path class="cls-2" d="M8.95,121.26l-1.33-2.72c-.39-.93-.78-1.86-1.19-2.78l12.38-5.14c.34.77.68,1.55,1,2.34l1.12,2.28-11.98,6.02Z"/>
          <path class="cls-2" d="M5.89,114.47c-.34-.95-.7-1.89-1.06-2.83-.36-.94-.61-1.92-.94-2.87l12.79-4.03c.28.8.48,1.62.79,2.41.31.79.61,1.58.89,2.38l-12.47,4.94Z"/>
          <path class="cls-2" d="M3.45,107.44c-.49-1.95-1.11-3.87-1.47-5.84l13.1-2.88c.29,1.66.84,3.27,1.23,4.91l-12.85,3.82Z"/>
          <path class="cls-2" d="M1.68,100.23l-.17-.73-.12-.74-.24-1.48-.26-1.48c-.1-.49-.12-.99-.18-1.49l13.3-1.71c.06.42.06.84.15,1.25l.22,1.24.2,1.25.1.62.15.62-13.14,2.66Z"/>
          <path class="cls-2" d="M.54,92.91l-.19-1.49-.09-1.5c-.05-1-.18-1.99-.19-3l13.4-.51c0,.84.13,1.67.16,2.51l.07,1.26.16,1.25-13.33,1.48Z"/>
          <path class="cls-2" d="M.06,85.54l-.03-1.5-.02-.75.03-.75c.04-1,.07-2,.09-3l13.39.69c0,.84-.03,1.68-.07,2.51l-.03.63.02.63.03,1.26-13.41.29Z"/>
          <path class="cls-2" d="M.22,78.15c.09-1,.16-1.99.23-2.99l.4-2.98,13.28,1.88c-.1.83-.22,1.67-.34,2.5-.05.84-.11,1.67-.19,2.51l-13.38-.91Z"/>
          <path class="cls-2" d="M1.03,70.79c.41-1.97.66-3.96,1.2-5.92l13.06,3.04c-.46,1.64-.65,3.32-1.01,4.97l-13.24-2.1Z"/>
          <path class="cls-2" d="M2.54,63.5c.19-.99.54-1.95.8-2.93l.42-1.46.21-.73.26-.72,12.74,4.17-.22.6-.17.62-.35,1.24c-.22.82-.53,1.63-.68,2.47l-13.01-3.26Z"/>
          <path class="cls-2" d="M4.69,56.33c.6-1.95,1.43-3.78,2.15-5.67l12.33,5.27c-.59,1.59-1.32,3.13-1.81,4.78l-12.67-4.38Z"/>
          <path class="cls-2" d="M7.42,49.39c.43-.91.85-1.82,1.26-2.74l1.4-2.66,11.81,6.35-1.18,2.23c-.34.77-.69,1.54-1.05,2.3l-12.24-5.48Z"/>
          <path class="cls-2" d="M10.72,42.75c1.06-1.7,1.99-3.48,3.15-5.11l11.2,7.37c-.99,1.36-1.74,2.86-2.64,4.28l-11.7-6.54Z"/>
          <path class="cls-2" d="M14.64,36.48l.41-.63.45-.6.89-1.21c.59-.81,1.16-1.63,1.82-2.39l10.49,8.35c-.56.63-1.03,1.32-1.52,2l-.75,1.01-.38.5-.34.53-11.07-7.56Z"/>
          <path class="cls-2" d="M19.08,30.58l.94-1.17,1.01-1.11c.68-.73,1.31-1.51,2.02-2.23l9.71,9.25c-.59.6-1.11,1.26-1.69,1.87l-.85.93-.78.99-10.35-8.52Z"/>
          <path class="cls-2" d="M24.03,25.08l1.05-1.07.52-.54.56-.5c.75-.67,1.48-1.35,2.22-2.04l8.85,10.07c-.61.58-1.23,1.15-1.86,1.71l-.47.42-.44.46-.88.9-9.55-9.41Z"/>
          <path class="cls-2" d="M29.46,20.03l2.32-1.93c.81-.6,1.62-1.2,2.42-1.81l7.92,10.82c-.67.52-1.35,1.02-2.03,1.52l-1.94,1.63-8.68-10.22Z"/>
          <path class="cls-2" d="M35.33,15.46c.84-.56,1.67-1.13,2.5-1.7.83-.57,1.72-1.05,2.57-1.59l6.94,11.47c-.71.46-1.47.85-2.16,1.34-.69.49-1.39.96-2.1,1.43l-7.74-10.95Z"/>
          <path class="cls-2" d="M41.58,11.42c1.79-.94,3.51-2,5.35-2.82l5.9,12.04c-1.56.68-2.99,1.59-4.5,2.37l-6.75-11.59Z"/>
          <path class="cls-2" d="M48.19,7.98l.68-.34.7-.29,1.39-.59,1.38-.61c.46-.2.94-.35,1.41-.53l4.82,12.51c-.4.15-.8.27-1.19.44l-1.16.52-1.17.5-.59.24-.57.29-5.7-12.14Z"/>
          <path class="cls-2" d="M55.07,5.12c.47-.17.94-.37,1.41-.53l1.44-.45,1.44-.47c.48-.17.95-.32,1.45-.43l3.69,12.89c-.41.09-.82.22-1.21.36l-1.21.39-1.21.37c-.4.13-.79.31-1.19.45l-4.61-12.59Z"/>
          <path class="cls-2" d="M62.15,2.88c1.93-.59,3.91-.92,5.86-1.39l2.53,13.17c-1.64.41-3.31.66-4.92,1.17l-3.48-12.95Z"/>
          <path class="cls-2" d="M69.4,1.28c.99-.15,1.97-.36,2.97-.49,1-.11,1.99-.22,2.98-.35l1.35,13.34c-.83.11-1.67.21-2.5.29-.83.1-1.66.29-2.49.41l-2.31-13.21Z"/>
          <path class="cls-2" d="M76.73.31c1-.06,2-.13,2.99-.21,1-.05,2-.03,3-.07l.16,13.41c-.84.03-1.68,0-2.51.05-.84.07-1.67.13-2.51.18l-1.13-13.36Z"/>
          <path class="cls-2" d="M84.12,0c2,.11,4,.05,5.99.29l-1.04,13.37c-1.67-.21-3.35-.14-5.02-.25l.07-13.41Z"/>
          <path class="cls-2" d="M91.5.39c1,.03,1.99.24,2.98.35.99.14,1.99.21,2.98.43l-2.23,13.22c-.82-.2-1.67-.24-2.5-.36-.83-.09-1.66-.28-2.5-.3l1.27-13.35Z"/>
          <path class="cls-2" d="M98.84,1.44c1.99.28,3.93.87,5.91,1.28l-3.38,12.97c-1.67-.33-3.3-.84-4.97-1.07l2.45-13.18Z"/>
          <path class="cls-2" d="M106.1,3.11c.97.29,1.95.57,2.93.83.95.34,1.91.68,2.87,1.01l-4.5,12.63c-.81-.27-1.62-.56-2.42-.85-.83-.22-1.65-.45-2.47-.7l3.6-12.92Z"/>
          <path class="cls-2" d="M113.23,5.41c1.85.8,3.78,1.45,5.57,2.36l-5.6,12.18c-1.5-.78-3.13-1.3-4.68-1.99l4.71-12.55Z"/>
          <path class="cls-2" d="M120.07,8.35c.93.38,1.79.91,2.68,1.36.88.48,1.8.88,2.64,1.43l-6.66,11.64c-.7-.47-1.48-.79-2.22-1.2-.75-.38-1.46-.83-2.25-1.14l5.8-12.09Z"/>
          <path class="cls-2" d="M126.59,11.85c1.76.96,3.37,2.16,5.06,3.22l-7.67,11c-1.43-.87-2.76-1.9-4.25-2.69l6.85-11.53Z"/>
          <path class="cls-2" d="M132.77,15.91c.8.6,1.63,1.16,2.41,1.78.77.64,1.54,1.27,2.33,1.9l-8.62,10.27c-.66-.52-1.31-1.05-1.95-1.59-.66-.52-1.36-.98-2.02-1.49l7.85-10.87Z"/>
          <path class="cls-2" d="M138.57,20.49c.74.68,1.48,1.34,2.24,2.01.74.67,1.42,1.42,2.14,2.11l-9.5,9.46c-.61-.58-1.17-1.21-1.8-1.77-.63-.55-1.26-1.11-1.88-1.68l8.79-10.12Z"/>
          <path class="cls-2" d="M143.95,25.57c1.32,1.51,2.76,2.92,3.99,4.51l-10.3,8.58c-1.03-1.35-2.25-2.51-3.35-3.79l9.66-9.3Z"/>
          <path class="cls-2" d="M148.85,31.16c.34.37.64.78.93,1.19l.9,1.21.92,1.2c.3.4.56.84.85,1.25l-11.02,7.64c-.24-.35-.46-.71-.71-1.05l-.77-1.01-.76-1.02c-.24-.35-.5-.68-.78-1l10.45-8.41Z"/>
          <path class="cls-2" d="M153.24,37.16c.28.42.59.82.85,1.25l.78,1.29.79,1.29.4.64.36.67-11.65,6.64-.3-.56-.34-.54-.67-1.08-.65-1.09c-.22-.36-.48-.7-.72-1.05l11.15-7.45Z"/>
          <path class="cls-2" d="M157.1,43.53c1.03,1.74,1.83,3.59,2.74,5.39l-12.19,5.58c-.79-1.5-1.44-3.08-2.31-4.53l11.76-6.44Z"/>
          <path class="cls-2" d="M160.38,50.21c.38.93.84,1.84,1.18,2.78.34.95.7,1.89,1.06,2.83l-12.64,4.49c-.31-.79-.61-1.58-.89-2.38-.29-.8-.68-1.55-1-2.34l12.28-5.38Z"/>
          <path class="cls-2" d="M163.08,57.15c.3.96.61,1.92.93,2.87l.78,2.91-12.98,3.35-.65-2.45c-.28-.8-.54-1.6-.79-2.41l12.71-4.28Z"/>
          <path class="cls-2" d="M165.15,64.29c.2.98.41,1.96.64,2.94l.17.73.12.74.24,1.48-13.23,2.19-.2-1.25-.1-.62-.15-.62c-.19-.82-.37-1.64-.53-2.47l13.04-3.13Z"/>
          <path class="cls-2" d="M166.55,71.57c.16.99.23,1.99.36,2.98l.19,1.49.09,1.5-13.37,1-.07-1.26-.16-1.25c-.12-.83-.16-1.67-.3-2.5l13.26-1.96Z"/>
          <path class="cls-2" d="M167.29,78.93c.11,1,.09,2,.11,3l.03,1.5.02.75-.03.75-13.41-.2.03-.63-.02-.63-.03-1.26c-.01-.84,0-1.68-.09-2.51l13.39-.77Z"/>
          <path class="cls-2" d="M167.38,86.31c.01,2-.26,3.99-.37,5.99l-13.34-1.4c.08-1.68.33-3.34.3-5.02l13.4.43Z"/>
          <path class="cls-2" d="M166.82,93.69l-.39,2.98c-.19.99-.38,1.97-.55,2.96l-13.16-2.57c.14-.83.3-1.66.47-2.49l.32-2.5,13.31,1.62Z"/>
          <path class="cls-2" d="M165.62,101.01c-.5,1.96-.87,3.94-1.5,5.87l-12.88-3.72c.55-1.63.84-3.3,1.27-4.95l13.11,2.79Z"/>
          <path class="cls-2" d="M163.73,108.24l-.2.73-.25.72-.5,1.44c-.34.95-.61,1.94-1.03,2.86l-12.51-4.83c.36-.77.57-1.61.87-2.41l.43-1.21.22-.6.17-.62,12.82,3.93Z"/>
          <path class="cls-2" d="M161.21,115.28c-.69,1.9-1.63,3.68-2.43,5.52l-12.03-5.92c.66-1.56,1.47-3.04,2.04-4.65l12.43,5.04Z"/>
          <path class="cls-2" d="M158.13,122.04l-1.39,2.67c-.52.85-1.03,1.71-1.54,2.58l-11.46-6.96c.42-.73.85-1.45,1.29-2.16.38-.75.76-1.5,1.16-2.24l11.93,6.12Z"/>
          <path class="cls-2" d="M154.48,128.48c-.56.83-1.11,1.66-1.66,2.5l-.41.63-.45.6-.89,1.21-10.79-7.96.75-1.01.38-.5.34-.53c.45-.71.92-1.4,1.39-2.09l11.34,7.16Z"/>
          <path class="cls-2" d="M150.26,134.55c-.59.81-1.27,1.55-1.88,2.34l-.94,1.17-1.01,1.11-10.04-8.89.85-.93.78-.99c.51-.66,1.09-1.28,1.58-1.96l10.66,8.14Z"/>
          <path class="cls-2" d="M145.5,140.21c-.34.37-.65.77-1.01,1.11l-1.07,1.06-1.05,1.07-.52.54-.56.5-9.21-9.75.47-.42.44-.46.88-.9.9-.89c.31-.29.56-.63.84-.94l9.89,9.06Z"/>
          <path class="cls-2" d="M140.25,145.44c-1.43,1.41-3.05,2.61-4.57,3.93l-8.31-10.53c1.27-1.11,2.64-2.11,3.84-3.3l9.04,9.9Z"/>
          <path class="cls-2" d="M134.55,150.2c-.82.59-1.58,1.25-2.42,1.8-.84.56-1.67,1.13-2.5,1.7l-7.34-11.22c.69-.49,1.39-.96,2.1-1.43.71-.46,1.35-1.03,2.03-1.52l8.13,10.66Z"/>
          <path class="cls-2" d="M128.45,154.45c-.86.52-1.72,1.05-2.57,1.59l-2.65,1.45-6.33-11.82,2.23-1.22c.71-.46,1.44-.9,2.16-1.34l7.16,11.34Z"/>
          <path class="cls-2" d="M121.99,158.16c-.91.43-1.82.87-2.72,1.32l-.68.34-.7.29-1.39.59-5.26-12.33,1.17-.5.59-.24.57-.29c.76-.38,1.52-.75,2.29-1.11l6.13,11.92Z"/>
          <path class="cls-2" d="M115.22,161.27c-.93.38-1.89.7-2.83,1.07-.47.17-.94.37-1.41.53l-1.44.45-4.15-12.75,1.21-.37c.4-.13.79-.31,1.19-.45.79-.31,1.59-.57,2.38-.89l5.06,12.42Z"/>
          <path class="cls-2" d="M108.21,163.75c-.95.35-1.93.55-2.9.82-.97.26-1.93.56-2.92.74l-3.01-13.07c.83-.14,1.64-.4,2.45-.62.81-.23,1.64-.39,2.44-.69l3.94,12.82Z"/>
          <path class="cls-2" d="M101.02,165.61l-1.47.33-1.48.24c-.99.15-1.97.36-2.97.49l-1.83-13.28c.83-.1,1.66-.29,2.49-.41l1.25-.2,1.23-.29,2.79,13.12Z"/>
          <path class="cls-2" d="M93.71,166.82l-1.49.18-.75.1-.75.04c-1,.06-2,.13-2.99.21l-.64-13.39c.84-.07,1.67-.13,2.51-.18l.63-.03.62-.08,1.25-.15,1.61,13.31Z"/>
          <path class="cls-2" d="M86.34,167.39c-1,.01-2,.04-3,.07l-3-.1.56-13.4c.84.02,1.67.05,2.51.09.84-.03,1.68-.06,2.51-.06l.42,13.4Z"/>
          <path class="cls-2" d="M78.95,167.31c-1.99-.2-3.99-.27-5.98-.6l1.75-13.29c1.66.29,3.34.33,5.01.51l-.78,13.39Z"/>
          <path class="cls-2" d="M71.59,166.54c-.5-.05-.99-.14-1.49-.24l-1.48-.28c-.99-.18-1.98-.33-2.96-.6l2.92-13.09c.82.24,1.66.35,2.49.5l1.24.23c.41.09.83.17,1.25.2l-1.97,13.26Z"/>
          <path class="cls-2" d="M64.3,165.1l-1.48-.34c-.49-.12-.97-.29-1.46-.42-.97-.29-1.95-.57-2.93-.83l4.05-12.78c.83.22,1.65.45,2.47.7.41.11.82.27,1.23.36l1.24.28-3.13,13.04Z"/>
        </g>
        <circle class="cls-3" cx="83.73" cy="83.73" r="61.77"/>
      </g>
      <g>
        <rect class="cls-1" x="66.1" y="57.07" width="8.72" height="53.32" rx="4.36" ry="4.36"/>
        <rect class="cls-1" x="92.64" y="57.07" width="8.72" height="53.32" rx="4.36" ry="4.36"/>
      </g>
    </g>
  </g>
</svg>