<?xml version="1.0" encoding="UTF-8"?>
<svg id="Layer_2" data-name="Layer 2" xmlns="http://www.w3.org/2000/svg" width="100.67" height="100.67" viewBox="0 0 100.67 100.67">
  <defs>
    <style>
      .cls-1 {
        fill: #40e0d0;
      }

      .cls-1, .cls-2, .cls-3, .cls-4, .cls-5, .cls-6, .cls-7, .cls-8, .cls-9, .cls-10 {
        stroke-width: 0px;
      }

      .cls-2 {
        fill: #000;
        opacity: .05;
      }

      .cls-3 {
        fill: #2d9b8e;
      }

      .cls-11 {
        fill: none;
        stroke: #40e0d0;
        stroke-miterlimit: 10;
        stroke-width: 5px;
      }

      .cls-4 {
        fill: #3b4f5d;
      }

      .cls-5 {
        fill: #67d3c6;
      }

      .cls-6 {
        fill: #fafbff;
      }

      .cls-7 {
        fill: #30a89c;
      }

      .cls-8 {
        fill: #dce5f7;
      }

      .cls-9 {
        fill: #f0f4ff;
      }

      .cls-10 {
        fill: #70e8dc;
      }
    </style>
  </defs>
  <g id="Layer_1-2" data-name="Layer 1">
    <g>
      <g>
        <rect class="cls-2" x="7.41" y="7.41" width="85.85" height="85.85" rx="42.92" ry="42.92"/>
        <rect class="cls-1" x="9.98" y="9.98" width="80.71" height="80.71" rx="40.35" ry="40.35"/>
        <rect class="cls-11" x="2.5" y="2.5" width="95.67" height="95.67" rx="47.83" ry="47.83"/>
      </g>
      <g>
        <path class="cls-6" d="M74.48,69.71H26.19v-12.88c0-.44.36-.8.8-.8h46.69c.44,0,.8.36.8.8v12.88Z"/>
        <path class="cls-9" d="M74.48,69.71H27.8v-12.88c0-.44.36-.8.8-.8h45.08c.44,0,.8.36.8.8v12.88Z"/>
        <path class="cls-3" d="M26.19,39.71v13.9c0,.44.36.8.8.8h46.69c.44,0,.8-.36.8-.8v-4.8c0-2.78-1.11-5.45-3.07-7.42-1.97-1.97-4.64-3.07-7.42-3.07-3.94,0-7.56-2.18-9.41-5.66-2.61-4.93-7.74-8.02-13.32-8.02-8.32,0-15.07,6.75-15.07,15.07h0Z"/>
        <path class="cls-7" d="M63.99,38.32c-3.9.04-7.5-2.09-9.34-5.52-.54-1.04-1.19-2.01-1.95-2.89-3.33-2.87-7.75-4.15-12.1-3.49-7.45,1.25-12.88,7.73-12.8,15.28v12.72h45.88c.44,0,.8-.36.8-.8v-4.8c0-2.78-1.11-5.45-3.07-7.42-1.97-1.97-4.64-3.07-7.42-3.07h0Z"/>
        <rect class="cls-5" x="26.19" y="53.61" width="48.3" height="3.22"/>
        <rect class="cls-10" x="27.8" y="53.61" width="46.69" height="3.22"/>
        <path class="cls-6" d="M58.38,53.61h-8.05v-10.46c0-1.33,1.08-2.41,2.41-2.41h5.63v12.88Z"/>
        <path class="cls-6" d="M42.28,53.61h8.05v-10.46c0-1.33-1.08-2.41-2.41-2.41h-5.63v12.88Z"/>
        <path class="cls-6" d="M71.76,20.78c-.19-.15-.45-.21-.69-.15l-6.44,1.61c-.36.09-.61.41-.61.78v5.78c-.26-.1-.53-.15-.8-.15-.98,0-1.86.59-2.23,1.49-.37.9-.17,1.94.52,2.63.69.69,1.73.9,2.63.52.9-.37,1.49-1.25,1.49-2.23v-7.42l4.83-1.21v4.75c-.26-.09-.53-.14-.8-.15-.98,0-1.86.59-2.23,1.49-.37.9-.17,1.94.52,2.63.69.69,1.73.9,2.63.52.9-.37,1.49-1.25,1.49-2.23v-8.05c0-.25-.11-.48-.31-.63h0Z"/>
        <path class="cls-6" d="M37.01,43.23l-3.22-1.61c-.25-.12-.55-.11-.78.04-.24.15-.38.41-.38.68v4.17c-.26-.1-.53-.15-.8-.15-.98,0-1.86.59-2.23,1.49-.37.9-.17,1.94.52,2.63.69.69,1.73.9,2.63.52.9-.37,1.49-1.25,1.49-2.23v-5.14l2.05,1.03c.19.1.41.11.62.04.2-.07.37-.21.47-.4.1-.19.11-.41.04-.61-.07-.2-.21-.37-.4-.47h0Z"/>
        <path class="cls-6" d="M44.25,29.55l-3.22-1.61c-.25-.12-.55-.11-.78.04-.24.15-.38.41-.38.68v4.17c-.26-.1-.53-.15-.8-.15-.98,0-1.86.59-2.23,1.49-.37.9-.17,1.94.52,2.63.69.69,1.73.9,2.63.52.9-.37,1.49-1.25,1.49-2.23v-5.14l2.05,1.03c.4.2.88.04,1.08-.36.2-.4.04-.88-.36-1.08h0Z"/>
        <path class="cls-4" d="M55.97,44.76h-3.22c-.44,0-.8-.36-.8-.8s.36-.8.8-.8h3.22c.44,0,.8.36.8.8s-.36.8-.8.8h0Z"/>
        <path class="cls-4" d="M55.97,47.98h-3.22c-.44,0-.8-.36-.8-.8s.36-.8.8-.8h3.22c.44,0,.8.36.8.8s-.36.8-.8.8h0Z"/>
        <path class="cls-4" d="M55.97,51.2h-3.22c-.44,0-.8-.36-.8-.8s.36-.8.8-.8h3.22c.44,0,.8.36.8.8s-.36.8-.8.8h0Z"/>
        <path class="cls-4" d="M47.92,44.76h-3.22c-.44,0-.8-.36-.8-.8s.36-.8.8-.8h3.22c.44,0,.8.36.8.8s-.36.8-.8.8h0Z"/>
        <path class="cls-4" d="M47.92,47.98h-3.22c-.44,0-.8-.36-.8-.8s.36-.8.8-.8h3.22c.44,0,.8.36.8.8s-.36.8-.8.8h0Z"/>
        <path class="cls-4" d="M47.92,51.2h-3.22c-.44,0-.8-.36-.8-.8s.36-.8.8-.8h3.22c.44,0,.8.36.8.8s-.36.8-.8.8h0Z"/>
        <rect class="cls-8" x="64.02" y="64.88" width="1.61" height="4.83"/>
        <rect class="cls-4" x="63.21" y="56.83" width="3.22" height="8.05"/>
        <rect class="cls-8" x="68.85" y="64.88" width="1.61" height="4.83"/>
        <rect class="cls-4" x="68.04" y="56.83" width="3.22" height="8.05"/>
        <rect class="cls-8" x="54.36" y="64.88" width="1.61" height="4.83"/>
        <rect class="cls-4" x="53.55" y="56.83" width="3.22" height="8.05"/>
        <rect class="cls-8" x="59.19" y="56.83" width="1.61" height="12.88"/>
        <rect class="cls-8" x="49.53" y="64.88" width="1.61" height="4.83"/>
        <rect class="cls-4" x="48.72" y="56.83" width="3.22" height="8.05"/>
        <rect class="cls-8" x="44.7" y="64.88" width="1.61" height="4.83"/>
        <rect class="cls-4" x="43.89" y="56.83" width="3.22" height="8.05"/>
        <rect class="cls-8" x="35.04" y="64.88" width="1.61" height="4.83"/>
        <rect class="cls-4" x="34.23" y="56.83" width="3.22" height="8.05"/>
        <rect class="cls-8" x="30.21" y="64.88" width="1.61" height="4.83"/>
        <rect class="cls-4" x="29.41" y="56.83" width="3.22" height="8.05"/>
        <rect class="cls-8" x="39.87" y="56.83" width="1.61" height="12.88"/>
        <path class="cls-8" d="M50.33,43.15c0-.68-.29-1.33-.8-1.79v12.25h1.61v-12.25c-.51.45-.8,1.1-.8,1.79h0Z"/>
      </g>
    </g>
  </g>
</svg>