<?xml version="1.0" encoding="UTF-8"?>
<svg id="Layer_2" data-name="Layer 2" xmlns="http://www.w3.org/2000/svg" width="59.36" height="59.36" viewBox="0 0 59.36 59.36">
  <defs>
    <style>
      .cls-1 {
        fill-rule: evenodd;
      }

      .cls-1, .cls-2 {
        fill: #77b192;
      }

      .cls-1, .cls-3 {
        stroke-width: 0px;
      }

      .cls-2 {
        stroke: #ddece4;
        stroke-miterlimit: 10;
        stroke-width: 3px;
      }

      .cls-3 {
        fill: #fff;
      }
    </style>
  </defs>
  <g id="Layer_1-2" data-name="Layer 1">
    <g>
      <circle class="cls-2" cx="29.68" cy="29.68" r="28.18"/>
      <g>
        <g>
          <path class="cls-3" d="M14.91,27.63c.48,0,.89-.39.89-.88v-1.07c0-.48-.41-.88-.89-.88s-.89.39-.89.88v1.07c0,.48.41.88.89.88h0Z"/>
          <path class="cls-3" d="M44.45,32.6c-.48,0-.89.39-.89.88v1.11c0,.48.41.88.89.88s.89-.39.89-.88v-1.11c0-.48-.41-.88-.89-.88h0Z"/>
          <path class="cls-3" d="M44.45,36.69c-.48,0-.89.39-.89.88v3.71c0,1.24-1.04,2.28-2.28,2.28h-1.04v-10.23c0-1.47-1.24-2.7-2.71-2.7h-15.69c-1.47,0-2.71,1.23-2.71,2.7v10.23h-1.04c-1.24,0-2.28-1.04-2.28-2.28v-17.84c0-.48-.41-.88-.89-.88s-.89.39-.89.88v17.84c0,2.21,1.85,4.06,4.06,4.06h23.2c2.21,0,4.06-1.85,4.06-4.06v-3.71c0-.48-.41-.88-.89-.88h0Z"/>
          <path class="cls-3" d="M44.11,19.22l-4.12-4.01c-.57-.56-1.29-.95-2.07-1.1-.11-.04-.23-.1-.35-.1h-19.49c-2.21,0-4.06,1.85-4.06,4.06v4.24c0,.48.41.88.89.88s.89-.39.89-.88v-4.24c0-1.24,1.04-2.28,2.28-2.28h1.04v4.55c0,1.24,1.05,2.22,2.29,2.22h14.78c1.24,0,2.27-.98,2.27-2.22v-4.12c.12.07.2.15.29.24l4.12,4.01c.43.42.69,1.01.69,1.61v15.65c0,.48.41.88.89.88s.89-.39.89-.88v-15.65c0-1.07-.47-2.12-1.24-2.87h0ZM31.05,20.19l-.05-.03s.06.02.09.03h-.05ZM33.71,19.73c0,.16-.12.34-.35.34h-2.21c-.22,0-.41-.19-.41-.34v-3.93h2.97v3.93Z"/>
        </g>
        <path class="cls-1" d="M28.49,39.32c0-1.94,0-6.23,0-6.23,0-.31.23-.56.54-.59,0,0,.88-.08,1.85.14.69.15,1.43.45,1.97.98,1.25,1.23,1.67,2.32,1.82,2.92,0,0,0,0,0,0,.08.32-.1.65-.41.76-.31.11-.65-.03-.79-.33-.19-.4-.58-1.08-1.27-1.41-.57-.28-1.18-.15-1.53-.03v5.62s-.01.03-.01.03c-.04.92-.88,1.97-2.19,2.44-1.61.58-3.12,0-3.58-.98-.31-.66-.3-1.46.12-2.12.27-.42.7-.8,1.35-1.03.76-.27,1.51-.31,2.13-.16h0Z"/>
      </g>
    </g>
  </g>
</svg>