<?xml version="1.0" encoding="UTF-8"?>
<svg id="Layer_2" data-name="Layer 2" xmlns="http://www.w3.org/2000/svg" width="100.67" height="100.67" xmlns:xlink="http://www.w3.org/1999/xlink" viewBox="0 0 100.67 100.67">
  <defs>
    <style>
      .cls-1 {
        fill: #000;
        opacity: .05;
      }

      .cls-1, .cls-2, .cls-3, .cls-4, .cls-5, .cls-6, .cls-7 {
        stroke-width: 0px;
      }

      .cls-2, .cls-8 {
        fill: none;
      }

      .cls-3 {
        fill: #cecece;
      }

      .cls-8 {
        stroke: #ffda40;
        stroke-miterlimit: 10;
        stroke-width: 5px;
      }

      .cls-4 {
        fill: #ffda40;
      }

      .cls-5 {
        fill: #e2e2e2;
      }

      .cls-9 {
        clip-path: url(#clippath);
      }

      .cls-6 {
        fill: #fff;
      }

      .cls-7 {
        fill: #eac93d;
      }
    </style>
    <clipPath id="clippath">
      <rect class="cls-2" x="25.86" y="25.86" width="48.94" height="48.94"/>
    </clipPath>
  </defs>
  <g id="Layer_1-2" data-name="Layer 1">
    <g>
      <g>
        <rect class="cls-1" x="7.41" y="7.41" width="85.85" height="85.85" rx="42.92" ry="42.92"/>
        <rect class="cls-6" x="9.98" y="9.98" width="80.71" height="80.71" rx="40.35" ry="40.35"/>
        <rect class="cls-8" x="2.5" y="2.5" width="95.67" height="95.67" rx="47.83" ry="47.83"/>
      </g>
      <g>
        <path class="cls-5" d="M32.13,48.86c-.41,0-.74-.33-.74-.74v-9.71c0-.41.33-.74.74-.74s.74.33.74.74v9.71c0,.41-.33.74-.74.74h0Z"/>
        <path class="cls-5" d="M30.4,45.57c1.4.02,2.52,1.21,2.5,2.66-.02,1.45-1.17,2.61-2.58,2.59-1.4-.02-2.52-1.21-2.5-2.66,0-.7.29-1.36.77-1.85.48-.49,1.13-.75,1.81-.74h0Z"/>
        <path class="cls-3" d="M30.4,45.57c-.5,0-.97.14-1.36.39.74.47,1.22,1.32,1.21,2.28-.01.93-.5,1.75-1.21,2.2.38.24.82.38,1.29.39,1.4.02,2.56-1.14,2.58-2.59.02-1.45-1.1-2.64-2.5-2.66h0Z"/>
        <path class="cls-5" d="M62.57,69.62c-.41,0-.74-.33-.74-.74v-9.71c0-.3.18-.56.45-.68l7.61-3.27c.23-.1.49-.07.7.06.21.14.33.37.33.62v9.71c0,.41-.33.74-.74.74s-.74-.33-.74-.74v-8.59l-6.13,2.63v9.23c0,.41-.33.74-.74.74h0Z"/>
        <path class="cls-5" d="M70.92,65.65c0,1.44-1.13,2.61-2.52,2.61s-2.52-1.17-2.52-2.61,1.13-2.61,2.52-2.61,2.52,1.17,2.52,2.61h0Z"/>
        <path class="cls-3" d="M68.4,63.04c-.47,0-.91.13-1.28.36.74.45,1.24,1.29,1.24,2.25s-.5,1.79-1.24,2.24c.37.23.81.36,1.28.36,1.39,0,2.52-1.17,2.52-2.61s-1.13-2.61-2.52-2.61h0Z"/>
        <path class="cls-5" d="M63.33,68.92c0,1.45-1.13,2.62-2.53,2.62s-2.53-1.17-2.53-2.62,1.13-2.62,2.53-2.62,2.53,1.17,2.53,2.62h0Z"/>
        <path class="cls-3" d="M60.8,66.3c-.47,0-.9.13-1.28.36.75.46,1.25,1.3,1.25,2.26s-.5,1.8-1.25,2.26c.38.23.81.36,1.28.36,1.4,0,2.53-1.17,2.53-2.62s-1.13-2.62-2.53-2.62h0Z"/>
        <path class="cls-5" d="M47.28,32.58c0,1.44-1.13,2.61-2.52,2.61s-2.52-1.17-2.52-2.61,1.13-2.61,2.52-2.61,2.52,1.17,2.52,2.61h0Z"/>
        <path class="cls-5" d="M39.7,29.32c0,1.45-1.13,2.62-2.53,2.62s-2.53-1.17-2.53-2.62,1.13-2.62,2.53-2.62,2.53,1.17,2.53,2.62h0Z"/>
        <path class="cls-5" d="M38.94,28.62c-.41,0-.74.33-.74.74v9.71c0,.3.18.56.45.68l7.61,3.27c.23.1.49.07.7-.06.21-.14.33-.37.33-.62v-9.71c0-.41-.33-.74-.74-.74s-.74.33-.74.74v8.59l-6.13-2.63v-9.23c0-.41-.33-.74-.74-.74h0Z"/>
        <path class="cls-3" d="M44.76,29.98c-.47,0-.91.13-1.28.36.74.45,1.24,1.29,1.24,2.25s-.5,1.79-1.24,2.24c.37.23.81.36,1.28.36,1.39,0,2.52-1.17,2.52-2.61s-1.13-2.61-2.52-2.61h0Z"/>
        <path class="cls-3" d="M37.17,26.7c-.47,0-.9.13-1.28.36.75.46,1.25,1.3,1.25,2.26s-.5,1.8-1.25,2.26c.38.23.81.36,1.28.36,1.4,0,2.53-1.17,2.53-2.62s-1.13-2.62-2.53-2.62h0Z"/>
        <g class="cls-9">
          <path class="cls-4" d="M44.97,55.12l-9.67,9.67c-2.08,2.08-2.08,5.45,0,7.53,2.08,2.08,5.45,2.08,7.53,0l9.67-9.66c2.08-2.08,2.08-5.45,0-7.53-2.08-2.08-5.45-2.08-7.53,0h0ZM50.78,60.93l-9.67,9.66c-1.13,1.13-2.96,1.13-4.09,0-1.13-1.13-1.13-2.96,0-4.09l9.67-9.66c1.13-1.13,2.96-1.13,4.09,0,1.13,1.13,1.13,2.96,0,4.09h0Z"/>
          <path class="cls-4" d="M29.26,74.34l-2.95-2.95c-.61-.61-.61-1.59,0-2.19.61-.6,1.59-.6,2.19,0l2.95,2.95c.61.61.61,1.59,0,2.19-.61.6-1.59.6-2.19,0h0Z"/>
        </g>
        <path class="cls-4" d="M56.49,28.53l15.72,15.6c-7.52-.66-14.22,1.53-21.93,9.24-9.64,9.64-16.37,16.14-18.38,18.22-.27.28-.72.28-1,0l-1.85-1.85c-.28-.28-.27-.72,0-1,2.42-2.34,9.76-9.76,18.18-18.18,7.83-7.83,10.56-16.83,9.24-22.05h0Z"/>
        <g>
          <path class="cls-7" d="M56.49,28.53c.04.16.08.32.11.49l12.64,12.55c-7.39-.3-13.08,2.67-20.79,10.38-9.64,9.64-16.37,16.14-18.38,18.22-.11.12-.26.18-.4.21l1.23,1.23c.28.28.72.27,1,0,2-2.08,8.74-8.58,18.38-18.22,7.71-7.71,14.41-9.9,21.93-9.24l-15.72-15.6Z"/>
          <path class="cls-7" d="M74.29,44.18c-.69.69-1.8.69-2.49,0l-15.3-15.3c-.69-.69-.69-1.8,0-2.49.69-.69,1.8-.69,2.49,0l15.3,15.3c.69.69.69,1.8,0,2.49h0Z"/>
        </g>
        <path class="cls-7" d="M43.46,72.43c-.19,0-.38-.07-.52-.22l-11.35-11.35c-.29-.29-.29-.76,0-1.04.29-.29.76-.29,1.04,0l11.35,11.35c.29.29.29.76,0,1.04-.14.14-.33.22-.52.22h0Z"/>
        <path class="cls-4" d="M30.89,62.23c-.19,0-.38-.07-.52-.22-.29-.29-.29-.76,0-1.04l2.36-2.36c.29-.29.76-.29,1.04,0,.29.29.29.76,0,1.04l-2.36,2.36c-.14.14-.33.22-.52.22h0Z"/>
        <path class="cls-7" d="M47.67,68.22c-.19,0-.38-.07-.52-.22l-11.35-11.35c-.29-.29-.29-.76,0-1.04.29-.29.76-.29,1.04,0l11.35,11.35c.29.29.29.76,0,1.04-.14.14-.33.22-.52.22h0Z"/>
        <path class="cls-4" d="M35.1,58.02c-.19,0-.38-.07-.52-.22-.29-.29-.29-.76,0-1.04l2.36-2.36c.29-.29.76-.29,1.04,0,.29.29.29.76,0,1.04l-2.36,2.36c-.14.14-.33.22-.52.22h0Z"/>
        <path class="cls-7" d="M51.82,63.95c-.19,0-.38-.07-.52-.22l-11.29-11.29c-.29-.29-.29-.76,0-1.04.29-.29.76-.29,1.04,0l11.29,11.29c.29.29.29.76,0,1.04-.14.14-.33.22-.52.22h0Z"/>
        <path class="cls-4" d="M39.31,53.81c-.19,0-.38-.07-.52-.22-.29-.29-.29-.76,0-1.04l2.36-2.36c.29-.29.76-.29,1.04,0,.29.29.29.76,0,1.04l-2.36,2.36c-.14.14-.33.22-.52.22h0Z"/>
      </g>
    </g>
  </g>
</svg>